%TF.GenerationSoftware,KiCad,Pcbnew,(5.1.6)-1*%
%TF.CreationDate,2020-11-03T09:27:13+01:00*%
%TF.ProjectId,SD-card adapter,53442d63-6172-4642-9061-646170746572,rev?*%
%TF.SameCoordinates,Original*%
%TF.FileFunction,Copper,L1,Top*%
%TF.FilePolarity,Positive*%
%FSLAX46Y46*%
G04 Gerber Fmt 4.6, Leading zero omitted, Abs format (unit mm)*
G04 Created by KiCad (PCBNEW (5.1.6)-1) date 2020-11-03 09:27:13*
%MOMM*%
%LPD*%
G01*
G04 APERTURE LIST*
%TA.AperFunction,SMDPad,CuDef*%
%ADD10R,0.800000X1.500000*%
%TD*%
%TA.AperFunction,SMDPad,CuDef*%
%ADD11R,1.400000X1.900000*%
%TD*%
%TA.AperFunction,SMDPad,CuDef*%
%ADD12R,1.300000X1.400000*%
%TD*%
%TA.AperFunction,SMDPad,CuDef*%
%ADD13R,1.000000X0.950000*%
%TD*%
%TA.AperFunction,ViaPad*%
%ADD14C,2.000000*%
%TD*%
%TA.AperFunction,Conductor*%
%ADD15C,0.250000*%
%TD*%
G04 APERTURE END LIST*
D10*
%TO.P,J2,1*%
%TO.N,Net-(J1-Pad1)*%
X125960000Y-46690000D03*
%TO.P,J2,2*%
%TO.N,Net-(J1-Pad2)*%
X127060000Y-47090000D03*
%TO.P,J2,3*%
%TO.N,Net-(J1-Pad3)*%
X128160000Y-46690000D03*
%TO.P,J2,4*%
%TO.N,Net-(J1-Pad4)*%
X129260000Y-46490000D03*
%TO.P,J2,6*%
%TO.N,Net-(J1-Pad6)*%
X131460000Y-46490000D03*
%TO.P,J2,5*%
%TO.N,Net-(J1-Pad5)*%
X130360000Y-46690000D03*
%TO.P,J2,7*%
%TO.N,Net-(J1-Pad7)*%
X132560000Y-46690000D03*
D11*
%TO.P,J2,9*%
%TO.N,Net-(J1-Pad9)*%
X134475000Y-44400000D03*
D12*
X132850000Y-57550000D03*
X127150000Y-57550000D03*
D13*
X131460000Y-57775000D03*
D11*
X121300000Y-43400000D03*
D10*
%TO.P,J2,8*%
%TO.N,Net-(J1-Pad8)*%
X133660000Y-46690000D03*
%TD*%
D14*
%TO.N,Net-(J1-Pad1)*%
X136000000Y-40250000D03*
%TO.N,Net-(J1-Pad2)*%
X137750000Y-41750000D03*
%TO.N,Net-(J1-Pad3)*%
X136750000Y-43750000D03*
%TO.N,Net-(J1-Pad4)*%
X123750000Y-40250000D03*
%TO.N,Net-(J1-Pad6)*%
X119750000Y-49250000D03*
%TO.N,Net-(J1-Pad5)*%
X119750000Y-47000000D03*
%TO.N,Net-(J1-Pad7)*%
X119750000Y-51500000D03*
%TO.N,Net-(J1-Pad9)*%
X119000000Y-56000000D03*
%TO.N,Net-(J1-Pad8)*%
X119750000Y-53750000D03*
%TD*%
D15*
%TO.N,Net-(J1-Pad1)*%
X125960000Y-46690000D02*
X125960000Y-41790000D01*
X125960000Y-41790000D02*
X127500000Y-40250000D01*
X127500000Y-40250000D02*
X136000000Y-40250000D01*
%TO.N,Net-(J1-Pad2)*%
X128120000Y-41750000D02*
X127060000Y-42810000D01*
X137750000Y-41750000D02*
X128120000Y-41750000D01*
X127060000Y-42810000D02*
X127060000Y-47090000D01*
%TO.N,Net-(J1-Pad3)*%
X128160000Y-46690000D02*
X128160000Y-43340000D01*
X128160000Y-43340000D02*
X128750000Y-42750000D01*
X128750000Y-42750000D02*
X135750000Y-42750000D01*
X135750000Y-42750000D02*
X136750000Y-43750000D01*
%TO.N,Net-(J1-Pad4)*%
X129260000Y-46490000D02*
X129260000Y-48740000D01*
X129260000Y-48740000D02*
X128750000Y-49250000D01*
X128750000Y-49250000D02*
X125500000Y-49250000D01*
X125500000Y-49250000D02*
X123750000Y-47500000D01*
X123750000Y-47500000D02*
X123750000Y-40250000D01*
%TO.N,Net-(J1-Pad6)*%
X131460000Y-46490000D02*
X131460000Y-51790000D01*
X131460000Y-51790000D02*
X130750000Y-52500000D01*
X130750000Y-52500000D02*
X123000000Y-52500000D01*
X123000000Y-52500000D02*
X119750000Y-49250000D01*
%TO.N,Net-(J1-Pad5)*%
X130360000Y-46690000D02*
X130360000Y-50390000D01*
X130360000Y-50390000D02*
X129000000Y-51750000D01*
X129000000Y-51750000D02*
X125000000Y-51750000D01*
X125000000Y-51750000D02*
X120250000Y-47000000D01*
X120250000Y-47000000D02*
X119750000Y-47000000D01*
%TO.N,Net-(J1-Pad7)*%
X132560000Y-46690000D02*
X132560000Y-51940000D01*
X132560000Y-51940000D02*
X131250000Y-53250000D01*
X131250000Y-53250000D02*
X121500000Y-53250000D01*
X121500000Y-53250000D02*
X119750000Y-51500000D01*
%TO.N,Net-(J1-Pad9)*%
X121300000Y-43400000D02*
X119350000Y-43400000D01*
X119350000Y-43400000D02*
X118250000Y-44500000D01*
X118250000Y-44500000D02*
X118250000Y-55250000D01*
X118250000Y-55250000D02*
X119000000Y-56000000D01*
X132625000Y-57775000D02*
X132850000Y-57550000D01*
X131460000Y-57775000D02*
X132625000Y-57775000D01*
X127375000Y-57775000D02*
X127150000Y-57550000D01*
X131460000Y-57775000D02*
X127375000Y-57775000D01*
X120550000Y-57550000D02*
X119000000Y-56000000D01*
X127150000Y-57550000D02*
X120550000Y-57550000D01*
X132850000Y-57550000D02*
X133450000Y-57550000D01*
X133450000Y-57550000D02*
X135500000Y-55500000D01*
X135500000Y-45425000D02*
X134475000Y-44400000D01*
X135500000Y-55500000D02*
X135500000Y-45425000D01*
%TO.N,Net-(J1-Pad8)*%
X133660000Y-46690000D02*
X133660000Y-52340000D01*
X133660000Y-52340000D02*
X132250000Y-53750000D01*
X132250000Y-53750000D02*
X119750000Y-53750000D01*
%TD*%
M02*
