M48
; DRILL file {KiCad (5.1.6)-1} date 10/28/20 14:57:13
; FORMAT={-:-/ absolute / metric / decimal}
; #@! TF.CreationDate,2020-10-28T14:57:13+01:00
; #@! TF.GenerationSoftware,Kicad,Pcbnew,(5.1.6)-1
; #@! TF.FileFunction,Plated,1,2,PTH
FMAT,2
METRIC
T1C0.800
T2C0.900
T3C1.000
T4C1.100
T5C1.400
%
G90
G05
T1
X61.555Y-35.79
X62.825Y-33.25
X64.095Y-35.79
X65.365Y-33.25
X66.635Y-35.79
X67.905Y-33.25
X69.175Y-35.79
X70.445Y-33.25
T2
X64.73Y-65.0
X67.27Y-65.0
X14.84Y-47.46
X14.84Y-50.0
X14.84Y-52.54
X22.46Y-39.84
X25.0Y-39.84
X27.54Y-39.84
X32.62Y-46.825
X32.62Y-53.175
X37.7Y-46.825
X37.7Y-53.175
T3
X49.26Y-25.72
X49.26Y-28.26
X49.26Y-30.8
X51.8Y-25.72
X51.8Y-28.26
X51.8Y-30.8
X62.2Y-50.0
X69.8Y-50.0
X85.6Y-52.0
X89.2Y-52.0
T4
X21.0Y-31.8
X45.0Y-49.6
X58.4Y-42.6
X76.4Y-52.2
X80.0Y-64.0
X81.4Y-27.2
X87.2Y-64.0
X94.4Y-35.0
X101.0Y-35.0
T5
X18.332Y-42.38
X18.332Y-57.62
X31.667Y-42.38
X31.667Y-57.62
T0
M30
