%TF.GenerationSoftware,KiCad,Pcbnew,(5.1.6)-1*%
%TF.CreationDate,2020-10-28T14:57:09+01:00*%
%TF.ProjectId,Controller,436f6e74-726f-46c6-9c65-722e6b696361,rev?*%
%TF.SameCoordinates,Original*%
%TF.FileFunction,Copper,L1,Top*%
%TF.FilePolarity,Positive*%
%FSLAX46Y46*%
G04 Gerber Fmt 4.6, Leading zero omitted, Abs format (unit mm)*
G04 Created by KiCad (PCBNEW (5.1.6)-1) date 2020-10-28 14:57:09*
%MOMM*%
%LPD*%
G01*
G04 APERTURE LIST*
%TA.AperFunction,SMDPad,CuDef*%
%ADD10R,1.550000X1.300000*%
%TD*%
%TA.AperFunction,ComponentPad*%
%ADD11R,1.700000X1.700000*%
%TD*%
%TA.AperFunction,ComponentPad*%
%ADD12C,1.778000*%
%TD*%
%TA.AperFunction,ComponentPad*%
%ADD13C,2.286000*%
%TD*%
%TA.AperFunction,ComponentPad*%
%ADD14C,1.500000*%
%TD*%
%TA.AperFunction,ComponentPad*%
%ADD15R,1.500000X1.500000*%
%TD*%
%TA.AperFunction,ComponentPad*%
%ADD16C,2.000000*%
%TD*%
%TA.AperFunction,ComponentPad*%
%ADD17R,2.000000X2.000000*%
%TD*%
%TA.AperFunction,ComponentPad*%
%ADD18C,1.800000*%
%TD*%
%TA.AperFunction,ComponentPad*%
%ADD19R,1.800000X1.800000*%
%TD*%
%TA.AperFunction,ComponentPad*%
%ADD20C,1.700000*%
%TD*%
%TA.AperFunction,ViaPad*%
%ADD21C,2.000000*%
%TD*%
%TA.AperFunction,Conductor*%
%ADD22C,0.250000*%
%TD*%
%TA.AperFunction,Conductor*%
%ADD23C,0.254000*%
%TD*%
G04 APERTURE END LIST*
D10*
%TO.P,SW4,2*%
%TO.N,GND*%
X117725000Y-47000000D03*
X109775000Y-47000000D03*
%TO.P,SW4,1*%
%TO.N,Net-(J2-Pad1)*%
X117725000Y-42500000D03*
X109775000Y-42500000D03*
%TD*%
%TO.P,SW3,2*%
%TO.N,GND*%
X104225000Y-57500000D03*
X96275000Y-57500000D03*
%TO.P,SW3,1*%
%TO.N,Net-(J1-Pad1)*%
X104225000Y-53000000D03*
X96275000Y-53000000D03*
%TD*%
D11*
%TO.P,J2,1*%
%TO.N,Net-(J2-Pad1)*%
X85600000Y-52000000D03*
%TD*%
%TO.P,J1,1*%
%TO.N,Net-(J1-Pad1)*%
X89200000Y-52000000D03*
%TD*%
D12*
%TO.P,U11,V3*%
%TO.N,GND*%
X22460000Y-39840000D03*
%TO.P,U11,V2*%
%TO.N,Net-(U10-Pad23)*%
X25000000Y-39840000D03*
%TO.P,U11,V1*%
%TO.N,+3V3*%
X27540000Y-39840000D03*
D13*
%TO.P,U11,MOUN*%
%TO.N,N/C*%
X31667500Y-57620000D03*
X18332500Y-57620000D03*
X18332500Y-42380000D03*
X31667500Y-42380000D03*
D12*
%TO.P,U11,H3*%
%TO.N,GND*%
X14840000Y-52540000D03*
%TO.P,U11,H2*%
%TO.N,Net-(U10-Pad24)*%
X14840000Y-50000000D03*
%TO.P,U11,H1*%
%TO.N,+3V3*%
X14840000Y-47460000D03*
%TO.P,U11,B2B*%
%TO.N,N/C*%
X32620000Y-53175000D03*
%TO.P,U11,B2A*%
%TO.N,GND*%
X32620000Y-46825000D03*
%TO.P,U11,B1B*%
%TO.N,N/C*%
X37700000Y-53175000D03*
%TO.P,U11,B1A*%
%TO.N,Net-(U10-Pad25)*%
X37700000Y-46825000D03*
%TD*%
D14*
%TO.P,J7,8*%
%TO.N,+3V3*%
X61555000Y-35790000D03*
%TO.P,J7,7*%
X62825000Y-33250000D03*
%TO.P,J7,6*%
%TO.N,/CTRL_MISO*%
X64095000Y-35790000D03*
%TO.P,J7,5*%
%TO.N,/CTRL_MOSI*%
X65365000Y-33250000D03*
%TO.P,J7,4*%
%TO.N,/CTRL_SCK*%
X66635000Y-35790000D03*
%TO.P,J7,3*%
%TO.N,/CTRL_CS*%
X67905000Y-33250000D03*
%TO.P,J7,2*%
%TO.N,GND*%
X69175000Y-35790000D03*
D15*
%TO.P,J7,1*%
X70445000Y-33250000D03*
%TD*%
D16*
%TO.P,BZ2,2*%
%TO.N,GND*%
X69800000Y-50000000D03*
D17*
%TO.P,BZ2,1*%
%TO.N,Net-(BZ2-Pad1)*%
X62200000Y-50000000D03*
%TD*%
D18*
%TO.P,D1,2*%
%TO.N,Net-(D1-Pad2)*%
X67270000Y-65000000D03*
D19*
%TO.P,D1,1*%
%TO.N,GND*%
X64730000Y-65000000D03*
%TD*%
D20*
%TO.P,J20,6*%
%TO.N,GND*%
X49260000Y-25720000D03*
%TO.P,J20,4*%
%TO.N,/CTRL_MOSI*%
X49260000Y-28260000D03*
%TO.P,J20,2*%
%TO.N,+3V3*%
X49260000Y-30800000D03*
%TO.P,J20,5*%
%TO.N,/~RESET~*%
X51800000Y-25720000D03*
%TO.P,J20,3*%
%TO.N,/CTRL_SCK*%
X51800000Y-28260000D03*
%TO.P,J20,1*%
%TO.N,/CTRL_MISO*%
%TA.AperFunction,ComponentPad*%
G36*
G01*
X52650000Y-30200000D02*
X52650000Y-31400000D01*
G75*
G02*
X52400000Y-31650000I-250000J0D01*
G01*
X51200000Y-31650000D01*
G75*
G02*
X50950000Y-31400000I0J250000D01*
G01*
X50950000Y-30200000D01*
G75*
G02*
X51200000Y-29950000I250000J0D01*
G01*
X52400000Y-29950000D01*
G75*
G02*
X52650000Y-30200000I0J-250000D01*
G01*
G37*
%TD.AperFunction*%
%TD*%
D21*
%TO.N,GND*%
X80000000Y-64000000D03*
X76400000Y-52200000D03*
X81400000Y-27200000D03*
X94400000Y-35000000D03*
X87200000Y-64000000D03*
X45000000Y-49600000D03*
X21000000Y-31800000D03*
X101000000Y-35000000D03*
X58400000Y-42600000D03*
%TD*%
D22*
%TO.N,Net-(J1-Pad1)*%
X104225000Y-53000000D02*
X95500000Y-53000000D01*
X94500000Y-52000000D02*
X89200000Y-52000000D01*
X95500000Y-53000000D02*
X94500000Y-52000000D01*
%TO.N,Net-(J2-Pad1)*%
X117725000Y-42500000D02*
X109775000Y-42500000D01*
X109775000Y-42500000D02*
X101250000Y-42500000D01*
X101250000Y-42500000D02*
X93750000Y-50000000D01*
X87600000Y-50000000D02*
X85600000Y-52000000D01*
X93750000Y-50000000D02*
X87600000Y-50000000D01*
%TD*%
D23*
%TO.N,GND*%
G36*
X123340001Y-36336088D02*
G01*
X123340000Y-71167721D01*
X123334229Y-71226578D01*
X123326511Y-71252143D01*
X123313972Y-71275724D01*
X123297093Y-71296420D01*
X123276516Y-71313442D01*
X123253026Y-71326144D01*
X123227516Y-71334040D01*
X123170815Y-71340000D01*
X8832279Y-71340000D01*
X8773422Y-71334229D01*
X8747857Y-71326511D01*
X8724276Y-71313972D01*
X8703580Y-71297093D01*
X8686558Y-71276516D01*
X8673856Y-71253026D01*
X8665960Y-71227516D01*
X8660000Y-71170815D01*
X8660000Y-65900000D01*
X63191928Y-65900000D01*
X63204188Y-66024482D01*
X63240498Y-66144180D01*
X63299463Y-66254494D01*
X63378815Y-66351185D01*
X63475506Y-66430537D01*
X63585820Y-66489502D01*
X63705518Y-66525812D01*
X63830000Y-66538072D01*
X64444250Y-66535000D01*
X64603000Y-66376250D01*
X64603000Y-65127000D01*
X63353750Y-65127000D01*
X63195000Y-65285750D01*
X63191928Y-65900000D01*
X8660000Y-65900000D01*
X8660000Y-64100000D01*
X63191928Y-64100000D01*
X63195000Y-64714250D01*
X63353750Y-64873000D01*
X64603000Y-64873000D01*
X64603000Y-63623750D01*
X64857000Y-63623750D01*
X64857000Y-64873000D01*
X64877000Y-64873000D01*
X64877000Y-65127000D01*
X64857000Y-65127000D01*
X64857000Y-66376250D01*
X65015750Y-66535000D01*
X65630000Y-66538072D01*
X65754482Y-66525812D01*
X65874180Y-66489502D01*
X65984494Y-66430537D01*
X66081185Y-66351185D01*
X66160537Y-66254494D01*
X66219502Y-66144180D01*
X66225056Y-66125873D01*
X66291495Y-66192312D01*
X66542905Y-66360299D01*
X66822257Y-66476011D01*
X67118816Y-66535000D01*
X67421184Y-66535000D01*
X67717743Y-66476011D01*
X67997095Y-66360299D01*
X68248505Y-66192312D01*
X68462312Y-65978505D01*
X68630299Y-65727095D01*
X68746011Y-65447743D01*
X68805000Y-65151184D01*
X68805000Y-64848816D01*
X68746011Y-64552257D01*
X68630299Y-64272905D01*
X68462312Y-64021495D01*
X68248505Y-63807688D01*
X67997095Y-63639701D01*
X67717743Y-63523989D01*
X67421184Y-63465000D01*
X67118816Y-63465000D01*
X66822257Y-63523989D01*
X66542905Y-63639701D01*
X66291495Y-63807688D01*
X66225056Y-63874127D01*
X66219502Y-63855820D01*
X66160537Y-63745506D01*
X66081185Y-63648815D01*
X65984494Y-63569463D01*
X65874180Y-63510498D01*
X65754482Y-63474188D01*
X65630000Y-63461928D01*
X65015750Y-63465000D01*
X64857000Y-63623750D01*
X64603000Y-63623750D01*
X64444250Y-63465000D01*
X63830000Y-63461928D01*
X63705518Y-63474188D01*
X63585820Y-63510498D01*
X63475506Y-63569463D01*
X63378815Y-63648815D01*
X63299463Y-63745506D01*
X63240498Y-63855820D01*
X63204188Y-63975518D01*
X63191928Y-64100000D01*
X8660000Y-64100000D01*
X8660000Y-57444882D01*
X16554500Y-57444882D01*
X16554500Y-57795118D01*
X16622828Y-58138623D01*
X16756857Y-58462199D01*
X16951437Y-58753409D01*
X17199091Y-59001063D01*
X17490301Y-59195643D01*
X17813877Y-59329672D01*
X18157382Y-59398000D01*
X18507618Y-59398000D01*
X18851123Y-59329672D01*
X19174699Y-59195643D01*
X19465909Y-59001063D01*
X19713563Y-58753409D01*
X19908143Y-58462199D01*
X20042172Y-58138623D01*
X20110500Y-57795118D01*
X20110500Y-57444882D01*
X29889500Y-57444882D01*
X29889500Y-57795118D01*
X29957828Y-58138623D01*
X30091857Y-58462199D01*
X30286437Y-58753409D01*
X30534091Y-59001063D01*
X30825301Y-59195643D01*
X31148877Y-59329672D01*
X31492382Y-59398000D01*
X31842618Y-59398000D01*
X32186123Y-59329672D01*
X32509699Y-59195643D01*
X32800909Y-59001063D01*
X33048563Y-58753409D01*
X33243143Y-58462199D01*
X33372459Y-58150000D01*
X94861928Y-58150000D01*
X94874188Y-58274482D01*
X94910498Y-58394180D01*
X94969463Y-58504494D01*
X95048815Y-58601185D01*
X95145506Y-58680537D01*
X95255820Y-58739502D01*
X95375518Y-58775812D01*
X95500000Y-58788072D01*
X95989250Y-58785000D01*
X96148000Y-58626250D01*
X96148000Y-57627000D01*
X96402000Y-57627000D01*
X96402000Y-58626250D01*
X96560750Y-58785000D01*
X97050000Y-58788072D01*
X97174482Y-58775812D01*
X97294180Y-58739502D01*
X97404494Y-58680537D01*
X97501185Y-58601185D01*
X97580537Y-58504494D01*
X97639502Y-58394180D01*
X97675812Y-58274482D01*
X97688072Y-58150000D01*
X102811928Y-58150000D01*
X102824188Y-58274482D01*
X102860498Y-58394180D01*
X102919463Y-58504494D01*
X102998815Y-58601185D01*
X103095506Y-58680537D01*
X103205820Y-58739502D01*
X103325518Y-58775812D01*
X103450000Y-58788072D01*
X103939250Y-58785000D01*
X104098000Y-58626250D01*
X104098000Y-57627000D01*
X104352000Y-57627000D01*
X104352000Y-58626250D01*
X104510750Y-58785000D01*
X105000000Y-58788072D01*
X105124482Y-58775812D01*
X105244180Y-58739502D01*
X105354494Y-58680537D01*
X105451185Y-58601185D01*
X105530537Y-58504494D01*
X105589502Y-58394180D01*
X105625812Y-58274482D01*
X105638072Y-58150000D01*
X105635000Y-57785750D01*
X105476250Y-57627000D01*
X104352000Y-57627000D01*
X104098000Y-57627000D01*
X102973750Y-57627000D01*
X102815000Y-57785750D01*
X102811928Y-58150000D01*
X97688072Y-58150000D01*
X97685000Y-57785750D01*
X97526250Y-57627000D01*
X96402000Y-57627000D01*
X96148000Y-57627000D01*
X95023750Y-57627000D01*
X94865000Y-57785750D01*
X94861928Y-58150000D01*
X33372459Y-58150000D01*
X33377172Y-58138623D01*
X33445500Y-57795118D01*
X33445500Y-57444882D01*
X33377172Y-57101377D01*
X33273049Y-56850000D01*
X94861928Y-56850000D01*
X94865000Y-57214250D01*
X95023750Y-57373000D01*
X96148000Y-57373000D01*
X96148000Y-56373750D01*
X96402000Y-56373750D01*
X96402000Y-57373000D01*
X97526250Y-57373000D01*
X97685000Y-57214250D01*
X97688072Y-56850000D01*
X102811928Y-56850000D01*
X102815000Y-57214250D01*
X102973750Y-57373000D01*
X104098000Y-57373000D01*
X104098000Y-56373750D01*
X104352000Y-56373750D01*
X104352000Y-57373000D01*
X105476250Y-57373000D01*
X105635000Y-57214250D01*
X105638072Y-56850000D01*
X105625812Y-56725518D01*
X105589502Y-56605820D01*
X105530537Y-56495506D01*
X105451185Y-56398815D01*
X105354494Y-56319463D01*
X105244180Y-56260498D01*
X105124482Y-56224188D01*
X105000000Y-56211928D01*
X104510750Y-56215000D01*
X104352000Y-56373750D01*
X104098000Y-56373750D01*
X103939250Y-56215000D01*
X103450000Y-56211928D01*
X103325518Y-56224188D01*
X103205820Y-56260498D01*
X103095506Y-56319463D01*
X102998815Y-56398815D01*
X102919463Y-56495506D01*
X102860498Y-56605820D01*
X102824188Y-56725518D01*
X102811928Y-56850000D01*
X97688072Y-56850000D01*
X97675812Y-56725518D01*
X97639502Y-56605820D01*
X97580537Y-56495506D01*
X97501185Y-56398815D01*
X97404494Y-56319463D01*
X97294180Y-56260498D01*
X97174482Y-56224188D01*
X97050000Y-56211928D01*
X96560750Y-56215000D01*
X96402000Y-56373750D01*
X96148000Y-56373750D01*
X95989250Y-56215000D01*
X95500000Y-56211928D01*
X95375518Y-56224188D01*
X95255820Y-56260498D01*
X95145506Y-56319463D01*
X95048815Y-56398815D01*
X94969463Y-56495506D01*
X94910498Y-56605820D01*
X94874188Y-56725518D01*
X94861928Y-56850000D01*
X33273049Y-56850000D01*
X33243143Y-56777801D01*
X33048563Y-56486591D01*
X32800909Y-56238937D01*
X32509699Y-56044357D01*
X32186123Y-55910328D01*
X31842618Y-55842000D01*
X31492382Y-55842000D01*
X31148877Y-55910328D01*
X30825301Y-56044357D01*
X30534091Y-56238937D01*
X30286437Y-56486591D01*
X30091857Y-56777801D01*
X29957828Y-57101377D01*
X29889500Y-57444882D01*
X20110500Y-57444882D01*
X20042172Y-57101377D01*
X19908143Y-56777801D01*
X19713563Y-56486591D01*
X19465909Y-56238937D01*
X19174699Y-56044357D01*
X18851123Y-55910328D01*
X18507618Y-55842000D01*
X18157382Y-55842000D01*
X17813877Y-55910328D01*
X17490301Y-56044357D01*
X17199091Y-56238937D01*
X16951437Y-56486591D01*
X16756857Y-56777801D01*
X16622828Y-57101377D01*
X16554500Y-57444882D01*
X8660000Y-57444882D01*
X8660000Y-53596231D01*
X13963374Y-53596231D01*
X14045727Y-53849289D01*
X14316418Y-53979086D01*
X14607230Y-54053580D01*
X14906988Y-54069908D01*
X15204171Y-54027443D01*
X15487359Y-53927816D01*
X15634273Y-53849289D01*
X15716626Y-53596231D01*
X14840000Y-52719605D01*
X13963374Y-53596231D01*
X8660000Y-53596231D01*
X8660000Y-52606988D01*
X13310092Y-52606988D01*
X13352557Y-52904171D01*
X13452184Y-53187359D01*
X13530711Y-53334273D01*
X13783769Y-53416626D01*
X14660395Y-52540000D01*
X15019605Y-52540000D01*
X15896231Y-53416626D01*
X16149289Y-53334273D01*
X16279086Y-53063582D01*
X16288994Y-53024899D01*
X31096000Y-53024899D01*
X31096000Y-53325101D01*
X31154566Y-53619534D01*
X31269449Y-53896885D01*
X31436232Y-54146493D01*
X31648507Y-54358768D01*
X31898115Y-54525551D01*
X32175466Y-54640434D01*
X32469899Y-54699000D01*
X32770101Y-54699000D01*
X33064534Y-54640434D01*
X33341885Y-54525551D01*
X33591493Y-54358768D01*
X33803768Y-54146493D01*
X33970551Y-53896885D01*
X34085434Y-53619534D01*
X34144000Y-53325101D01*
X34144000Y-53024899D01*
X36176000Y-53024899D01*
X36176000Y-53325101D01*
X36234566Y-53619534D01*
X36349449Y-53896885D01*
X36516232Y-54146493D01*
X36728507Y-54358768D01*
X36978115Y-54525551D01*
X37255466Y-54640434D01*
X37549899Y-54699000D01*
X37850101Y-54699000D01*
X38144534Y-54640434D01*
X38421885Y-54525551D01*
X38671493Y-54358768D01*
X38883768Y-54146493D01*
X39050551Y-53896885D01*
X39165434Y-53619534D01*
X39224000Y-53325101D01*
X39224000Y-53024899D01*
X39165434Y-52730466D01*
X39050551Y-52453115D01*
X38883768Y-52203507D01*
X38671493Y-51991232D01*
X38421885Y-51824449D01*
X38144534Y-51709566D01*
X37850101Y-51651000D01*
X37549899Y-51651000D01*
X37255466Y-51709566D01*
X36978115Y-51824449D01*
X36728507Y-51991232D01*
X36516232Y-52203507D01*
X36349449Y-52453115D01*
X36234566Y-52730466D01*
X36176000Y-53024899D01*
X34144000Y-53024899D01*
X34085434Y-52730466D01*
X33970551Y-52453115D01*
X33803768Y-52203507D01*
X33591493Y-51991232D01*
X33341885Y-51824449D01*
X33064534Y-51709566D01*
X32770101Y-51651000D01*
X32469899Y-51651000D01*
X32175466Y-51709566D01*
X31898115Y-51824449D01*
X31648507Y-51991232D01*
X31436232Y-52203507D01*
X31269449Y-52453115D01*
X31154566Y-52730466D01*
X31096000Y-53024899D01*
X16288994Y-53024899D01*
X16353580Y-52772770D01*
X16369908Y-52473012D01*
X16327443Y-52175829D01*
X16227816Y-51892641D01*
X16149289Y-51745727D01*
X15896231Y-51663374D01*
X15019605Y-52540000D01*
X14660395Y-52540000D01*
X13783769Y-51663374D01*
X13530711Y-51745727D01*
X13400914Y-52016418D01*
X13326420Y-52307230D01*
X13310092Y-52606988D01*
X8660000Y-52606988D01*
X8660000Y-47309899D01*
X13316000Y-47309899D01*
X13316000Y-47610101D01*
X13374566Y-47904534D01*
X13489449Y-48181885D01*
X13656232Y-48431493D01*
X13868507Y-48643768D01*
X13997562Y-48730000D01*
X13868507Y-48816232D01*
X13656232Y-49028507D01*
X13489449Y-49278115D01*
X13374566Y-49555466D01*
X13316000Y-49849899D01*
X13316000Y-50150101D01*
X13374566Y-50444534D01*
X13489449Y-50721885D01*
X13656232Y-50971493D01*
X13868507Y-51183768D01*
X14026622Y-51289417D01*
X13963374Y-51483769D01*
X14840000Y-52360395D01*
X15716626Y-51483769D01*
X15653378Y-51289417D01*
X15811493Y-51183768D01*
X16023768Y-50971493D01*
X16190551Y-50721885D01*
X16305434Y-50444534D01*
X16364000Y-50150101D01*
X16364000Y-49849899D01*
X16305434Y-49555466D01*
X16190551Y-49278115D01*
X16023768Y-49028507D01*
X15995261Y-49000000D01*
X60561928Y-49000000D01*
X60561928Y-51000000D01*
X60574188Y-51124482D01*
X60610498Y-51244180D01*
X60669463Y-51354494D01*
X60748815Y-51451185D01*
X60845506Y-51530537D01*
X60955820Y-51589502D01*
X61075518Y-51625812D01*
X61200000Y-51638072D01*
X63200000Y-51638072D01*
X63324482Y-51625812D01*
X63444180Y-51589502D01*
X63554494Y-51530537D01*
X63651185Y-51451185D01*
X63730537Y-51354494D01*
X63789502Y-51244180D01*
X63822496Y-51135413D01*
X68844192Y-51135413D01*
X68939956Y-51399814D01*
X69229571Y-51540704D01*
X69541108Y-51622384D01*
X69862595Y-51641718D01*
X70181675Y-51597961D01*
X70486088Y-51492795D01*
X70660044Y-51399814D01*
X70750524Y-51150000D01*
X84111928Y-51150000D01*
X84111928Y-52850000D01*
X84124188Y-52974482D01*
X84160498Y-53094180D01*
X84219463Y-53204494D01*
X84298815Y-53301185D01*
X84395506Y-53380537D01*
X84505820Y-53439502D01*
X84625518Y-53475812D01*
X84750000Y-53488072D01*
X86450000Y-53488072D01*
X86574482Y-53475812D01*
X86694180Y-53439502D01*
X86804494Y-53380537D01*
X86901185Y-53301185D01*
X86980537Y-53204494D01*
X87039502Y-53094180D01*
X87075812Y-52974482D01*
X87088072Y-52850000D01*
X87088072Y-51586729D01*
X87756804Y-50917998D01*
X87724188Y-51025518D01*
X87711928Y-51150000D01*
X87711928Y-52850000D01*
X87724188Y-52974482D01*
X87760498Y-53094180D01*
X87819463Y-53204494D01*
X87898815Y-53301185D01*
X87995506Y-53380537D01*
X88105820Y-53439502D01*
X88225518Y-53475812D01*
X88350000Y-53488072D01*
X90050000Y-53488072D01*
X90174482Y-53475812D01*
X90294180Y-53439502D01*
X90404494Y-53380537D01*
X90501185Y-53301185D01*
X90580537Y-53204494D01*
X90639502Y-53094180D01*
X90675812Y-52974482D01*
X90688072Y-52850000D01*
X90688072Y-52760000D01*
X94185199Y-52760000D01*
X94861928Y-53436730D01*
X94861928Y-53650000D01*
X94874188Y-53774482D01*
X94910498Y-53894180D01*
X94969463Y-54004494D01*
X95048815Y-54101185D01*
X95145506Y-54180537D01*
X95255820Y-54239502D01*
X95375518Y-54275812D01*
X95500000Y-54288072D01*
X97050000Y-54288072D01*
X97174482Y-54275812D01*
X97294180Y-54239502D01*
X97404494Y-54180537D01*
X97501185Y-54101185D01*
X97580537Y-54004494D01*
X97639502Y-53894180D01*
X97675812Y-53774482D01*
X97677238Y-53760000D01*
X102822762Y-53760000D01*
X102824188Y-53774482D01*
X102860498Y-53894180D01*
X102919463Y-54004494D01*
X102998815Y-54101185D01*
X103095506Y-54180537D01*
X103205820Y-54239502D01*
X103325518Y-54275812D01*
X103450000Y-54288072D01*
X105000000Y-54288072D01*
X105124482Y-54275812D01*
X105244180Y-54239502D01*
X105354494Y-54180537D01*
X105451185Y-54101185D01*
X105530537Y-54004494D01*
X105589502Y-53894180D01*
X105625812Y-53774482D01*
X105638072Y-53650000D01*
X105638072Y-52350000D01*
X105625812Y-52225518D01*
X105589502Y-52105820D01*
X105530537Y-51995506D01*
X105451185Y-51898815D01*
X105354494Y-51819463D01*
X105244180Y-51760498D01*
X105124482Y-51724188D01*
X105000000Y-51711928D01*
X103450000Y-51711928D01*
X103325518Y-51724188D01*
X103205820Y-51760498D01*
X103095506Y-51819463D01*
X102998815Y-51898815D01*
X102919463Y-51995506D01*
X102860498Y-52105820D01*
X102824188Y-52225518D01*
X102822762Y-52240000D01*
X97677238Y-52240000D01*
X97675812Y-52225518D01*
X97639502Y-52105820D01*
X97580537Y-51995506D01*
X97501185Y-51898815D01*
X97404494Y-51819463D01*
X97294180Y-51760498D01*
X97174482Y-51724188D01*
X97050000Y-51711928D01*
X95500000Y-51711928D01*
X95375518Y-51724188D01*
X95316801Y-51742000D01*
X95063804Y-51489002D01*
X95040001Y-51459999D01*
X94924276Y-51365026D01*
X94792247Y-51294454D01*
X94648986Y-51250997D01*
X94537333Y-51240000D01*
X94537322Y-51240000D01*
X94500000Y-51236324D01*
X94462678Y-51240000D01*
X90688072Y-51240000D01*
X90688072Y-51150000D01*
X90675812Y-51025518D01*
X90639502Y-50905820D01*
X90580537Y-50795506D01*
X90551398Y-50760000D01*
X93712678Y-50760000D01*
X93750000Y-50763676D01*
X93787322Y-50760000D01*
X93787333Y-50760000D01*
X93898986Y-50749003D01*
X94042247Y-50705546D01*
X94174276Y-50634974D01*
X94290001Y-50540001D01*
X94313804Y-50510997D01*
X97174801Y-47650000D01*
X108361928Y-47650000D01*
X108374188Y-47774482D01*
X108410498Y-47894180D01*
X108469463Y-48004494D01*
X108548815Y-48101185D01*
X108645506Y-48180537D01*
X108755820Y-48239502D01*
X108875518Y-48275812D01*
X109000000Y-48288072D01*
X109489250Y-48285000D01*
X109648000Y-48126250D01*
X109648000Y-47127000D01*
X109902000Y-47127000D01*
X109902000Y-48126250D01*
X110060750Y-48285000D01*
X110550000Y-48288072D01*
X110674482Y-48275812D01*
X110794180Y-48239502D01*
X110904494Y-48180537D01*
X111001185Y-48101185D01*
X111080537Y-48004494D01*
X111139502Y-47894180D01*
X111175812Y-47774482D01*
X111188072Y-47650000D01*
X116311928Y-47650000D01*
X116324188Y-47774482D01*
X116360498Y-47894180D01*
X116419463Y-48004494D01*
X116498815Y-48101185D01*
X116595506Y-48180537D01*
X116705820Y-48239502D01*
X116825518Y-48275812D01*
X116950000Y-48288072D01*
X117439250Y-48285000D01*
X117598000Y-48126250D01*
X117598000Y-47127000D01*
X117852000Y-47127000D01*
X117852000Y-48126250D01*
X118010750Y-48285000D01*
X118500000Y-48288072D01*
X118624482Y-48275812D01*
X118744180Y-48239502D01*
X118854494Y-48180537D01*
X118951185Y-48101185D01*
X119030537Y-48004494D01*
X119089502Y-47894180D01*
X119125812Y-47774482D01*
X119138072Y-47650000D01*
X119135000Y-47285750D01*
X118976250Y-47127000D01*
X117852000Y-47127000D01*
X117598000Y-47127000D01*
X116473750Y-47127000D01*
X116315000Y-47285750D01*
X116311928Y-47650000D01*
X111188072Y-47650000D01*
X111185000Y-47285750D01*
X111026250Y-47127000D01*
X109902000Y-47127000D01*
X109648000Y-47127000D01*
X108523750Y-47127000D01*
X108365000Y-47285750D01*
X108361928Y-47650000D01*
X97174801Y-47650000D01*
X98474801Y-46350000D01*
X108361928Y-46350000D01*
X108365000Y-46714250D01*
X108523750Y-46873000D01*
X109648000Y-46873000D01*
X109648000Y-45873750D01*
X109902000Y-45873750D01*
X109902000Y-46873000D01*
X111026250Y-46873000D01*
X111185000Y-46714250D01*
X111188072Y-46350000D01*
X116311928Y-46350000D01*
X116315000Y-46714250D01*
X116473750Y-46873000D01*
X117598000Y-46873000D01*
X117598000Y-45873750D01*
X117852000Y-45873750D01*
X117852000Y-46873000D01*
X118976250Y-46873000D01*
X119135000Y-46714250D01*
X119138072Y-46350000D01*
X119125812Y-46225518D01*
X119089502Y-46105820D01*
X119030537Y-45995506D01*
X118951185Y-45898815D01*
X118854494Y-45819463D01*
X118744180Y-45760498D01*
X118624482Y-45724188D01*
X118500000Y-45711928D01*
X118010750Y-45715000D01*
X117852000Y-45873750D01*
X117598000Y-45873750D01*
X117439250Y-45715000D01*
X116950000Y-45711928D01*
X116825518Y-45724188D01*
X116705820Y-45760498D01*
X116595506Y-45819463D01*
X116498815Y-45898815D01*
X116419463Y-45995506D01*
X116360498Y-46105820D01*
X116324188Y-46225518D01*
X116311928Y-46350000D01*
X111188072Y-46350000D01*
X111175812Y-46225518D01*
X111139502Y-46105820D01*
X111080537Y-45995506D01*
X111001185Y-45898815D01*
X110904494Y-45819463D01*
X110794180Y-45760498D01*
X110674482Y-45724188D01*
X110550000Y-45711928D01*
X110060750Y-45715000D01*
X109902000Y-45873750D01*
X109648000Y-45873750D01*
X109489250Y-45715000D01*
X109000000Y-45711928D01*
X108875518Y-45724188D01*
X108755820Y-45760498D01*
X108645506Y-45819463D01*
X108548815Y-45898815D01*
X108469463Y-45995506D01*
X108410498Y-46105820D01*
X108374188Y-46225518D01*
X108361928Y-46350000D01*
X98474801Y-46350000D01*
X101564802Y-43260000D01*
X108372762Y-43260000D01*
X108374188Y-43274482D01*
X108410498Y-43394180D01*
X108469463Y-43504494D01*
X108548815Y-43601185D01*
X108645506Y-43680537D01*
X108755820Y-43739502D01*
X108875518Y-43775812D01*
X109000000Y-43788072D01*
X110550000Y-43788072D01*
X110674482Y-43775812D01*
X110794180Y-43739502D01*
X110904494Y-43680537D01*
X111001185Y-43601185D01*
X111080537Y-43504494D01*
X111139502Y-43394180D01*
X111175812Y-43274482D01*
X111177238Y-43260000D01*
X116322762Y-43260000D01*
X116324188Y-43274482D01*
X116360498Y-43394180D01*
X116419463Y-43504494D01*
X116498815Y-43601185D01*
X116595506Y-43680537D01*
X116705820Y-43739502D01*
X116825518Y-43775812D01*
X116950000Y-43788072D01*
X118500000Y-43788072D01*
X118624482Y-43775812D01*
X118744180Y-43739502D01*
X118854494Y-43680537D01*
X118951185Y-43601185D01*
X119030537Y-43504494D01*
X119089502Y-43394180D01*
X119125812Y-43274482D01*
X119138072Y-43150000D01*
X119138072Y-41850000D01*
X119125812Y-41725518D01*
X119089502Y-41605820D01*
X119030537Y-41495506D01*
X118951185Y-41398815D01*
X118854494Y-41319463D01*
X118744180Y-41260498D01*
X118624482Y-41224188D01*
X118500000Y-41211928D01*
X116950000Y-41211928D01*
X116825518Y-41224188D01*
X116705820Y-41260498D01*
X116595506Y-41319463D01*
X116498815Y-41398815D01*
X116419463Y-41495506D01*
X116360498Y-41605820D01*
X116324188Y-41725518D01*
X116322762Y-41740000D01*
X111177238Y-41740000D01*
X111175812Y-41725518D01*
X111139502Y-41605820D01*
X111080537Y-41495506D01*
X111001185Y-41398815D01*
X110904494Y-41319463D01*
X110794180Y-41260498D01*
X110674482Y-41224188D01*
X110550000Y-41211928D01*
X109000000Y-41211928D01*
X108875518Y-41224188D01*
X108755820Y-41260498D01*
X108645506Y-41319463D01*
X108548815Y-41398815D01*
X108469463Y-41495506D01*
X108410498Y-41605820D01*
X108374188Y-41725518D01*
X108372762Y-41740000D01*
X101287325Y-41740000D01*
X101250000Y-41736324D01*
X101212675Y-41740000D01*
X101212667Y-41740000D01*
X101101014Y-41750997D01*
X100957753Y-41794454D01*
X100825724Y-41865026D01*
X100709999Y-41959999D01*
X100686201Y-41988997D01*
X93435199Y-49240000D01*
X87637322Y-49240000D01*
X87599999Y-49236324D01*
X87562676Y-49240000D01*
X87562667Y-49240000D01*
X87451014Y-49250997D01*
X87307753Y-49294454D01*
X87175723Y-49365026D01*
X87097076Y-49429571D01*
X87059999Y-49459999D01*
X87036201Y-49488997D01*
X86013271Y-50511928D01*
X84750000Y-50511928D01*
X84625518Y-50524188D01*
X84505820Y-50560498D01*
X84395506Y-50619463D01*
X84298815Y-50698815D01*
X84219463Y-50795506D01*
X84160498Y-50905820D01*
X84124188Y-51025518D01*
X84111928Y-51150000D01*
X70750524Y-51150000D01*
X70755808Y-51135413D01*
X69800000Y-50179605D01*
X68844192Y-51135413D01*
X63822496Y-51135413D01*
X63825812Y-51124482D01*
X63838072Y-51000000D01*
X63838072Y-50062595D01*
X68158282Y-50062595D01*
X68202039Y-50381675D01*
X68307205Y-50686088D01*
X68400186Y-50860044D01*
X68664587Y-50955808D01*
X69620395Y-50000000D01*
X69979605Y-50000000D01*
X70935413Y-50955808D01*
X71199814Y-50860044D01*
X71340704Y-50570429D01*
X71422384Y-50258892D01*
X71441718Y-49937405D01*
X71397961Y-49618325D01*
X71292795Y-49313912D01*
X71199814Y-49139956D01*
X70935413Y-49044192D01*
X69979605Y-50000000D01*
X69620395Y-50000000D01*
X68664587Y-49044192D01*
X68400186Y-49139956D01*
X68259296Y-49429571D01*
X68177616Y-49741108D01*
X68158282Y-50062595D01*
X63838072Y-50062595D01*
X63838072Y-49000000D01*
X63825812Y-48875518D01*
X63822497Y-48864587D01*
X68844192Y-48864587D01*
X69800000Y-49820395D01*
X70755808Y-48864587D01*
X70660044Y-48600186D01*
X70370429Y-48459296D01*
X70058892Y-48377616D01*
X69737405Y-48358282D01*
X69418325Y-48402039D01*
X69113912Y-48507205D01*
X68939956Y-48600186D01*
X68844192Y-48864587D01*
X63822497Y-48864587D01*
X63789502Y-48755820D01*
X63730537Y-48645506D01*
X63651185Y-48548815D01*
X63554494Y-48469463D01*
X63444180Y-48410498D01*
X63324482Y-48374188D01*
X63200000Y-48361928D01*
X61200000Y-48361928D01*
X61075518Y-48374188D01*
X60955820Y-48410498D01*
X60845506Y-48469463D01*
X60748815Y-48548815D01*
X60669463Y-48645506D01*
X60610498Y-48755820D01*
X60574188Y-48875518D01*
X60561928Y-49000000D01*
X15995261Y-49000000D01*
X15811493Y-48816232D01*
X15682438Y-48730000D01*
X15811493Y-48643768D01*
X16023768Y-48431493D01*
X16190551Y-48181885D01*
X16305434Y-47904534D01*
X16310069Y-47881231D01*
X31743374Y-47881231D01*
X31825727Y-48134289D01*
X32096418Y-48264086D01*
X32387230Y-48338580D01*
X32686988Y-48354908D01*
X32984171Y-48312443D01*
X33267359Y-48212816D01*
X33414273Y-48134289D01*
X33496626Y-47881231D01*
X32620000Y-47004605D01*
X31743374Y-47881231D01*
X16310069Y-47881231D01*
X16364000Y-47610101D01*
X16364000Y-47309899D01*
X16305434Y-47015466D01*
X16254288Y-46891988D01*
X31090092Y-46891988D01*
X31132557Y-47189171D01*
X31232184Y-47472359D01*
X31310711Y-47619273D01*
X31563769Y-47701626D01*
X32440395Y-46825000D01*
X32799605Y-46825000D01*
X33676231Y-47701626D01*
X33929289Y-47619273D01*
X34059086Y-47348582D01*
X34133580Y-47057770D01*
X34149908Y-46758012D01*
X34138032Y-46674899D01*
X36176000Y-46674899D01*
X36176000Y-46975101D01*
X36234566Y-47269534D01*
X36349449Y-47546885D01*
X36516232Y-47796493D01*
X36728507Y-48008768D01*
X36978115Y-48175551D01*
X37255466Y-48290434D01*
X37549899Y-48349000D01*
X37850101Y-48349000D01*
X38144534Y-48290434D01*
X38421885Y-48175551D01*
X38671493Y-48008768D01*
X38883768Y-47796493D01*
X39050551Y-47546885D01*
X39165434Y-47269534D01*
X39224000Y-46975101D01*
X39224000Y-46674899D01*
X39165434Y-46380466D01*
X39050551Y-46103115D01*
X38883768Y-45853507D01*
X38671493Y-45641232D01*
X38421885Y-45474449D01*
X38144534Y-45359566D01*
X37850101Y-45301000D01*
X37549899Y-45301000D01*
X37255466Y-45359566D01*
X36978115Y-45474449D01*
X36728507Y-45641232D01*
X36516232Y-45853507D01*
X36349449Y-46103115D01*
X36234566Y-46380466D01*
X36176000Y-46674899D01*
X34138032Y-46674899D01*
X34107443Y-46460829D01*
X34007816Y-46177641D01*
X33929289Y-46030727D01*
X33676231Y-45948374D01*
X32799605Y-46825000D01*
X32440395Y-46825000D01*
X31563769Y-45948374D01*
X31310711Y-46030727D01*
X31180914Y-46301418D01*
X31106420Y-46592230D01*
X31090092Y-46891988D01*
X16254288Y-46891988D01*
X16190551Y-46738115D01*
X16023768Y-46488507D01*
X15811493Y-46276232D01*
X15561885Y-46109449D01*
X15284534Y-45994566D01*
X14990101Y-45936000D01*
X14689899Y-45936000D01*
X14395466Y-45994566D01*
X14118115Y-46109449D01*
X13868507Y-46276232D01*
X13656232Y-46488507D01*
X13489449Y-46738115D01*
X13374566Y-47015466D01*
X13316000Y-47309899D01*
X8660000Y-47309899D01*
X8660000Y-45768769D01*
X31743374Y-45768769D01*
X32620000Y-46645395D01*
X33496626Y-45768769D01*
X33414273Y-45515711D01*
X33143582Y-45385914D01*
X32852770Y-45311420D01*
X32553012Y-45295092D01*
X32255829Y-45337557D01*
X31972641Y-45437184D01*
X31825727Y-45515711D01*
X31743374Y-45768769D01*
X8660000Y-45768769D01*
X8660000Y-42204882D01*
X16554500Y-42204882D01*
X16554500Y-42555118D01*
X16622828Y-42898623D01*
X16756857Y-43222199D01*
X16951437Y-43513409D01*
X17199091Y-43761063D01*
X17490301Y-43955643D01*
X17813877Y-44089672D01*
X18157382Y-44158000D01*
X18507618Y-44158000D01*
X18851123Y-44089672D01*
X19174699Y-43955643D01*
X19465909Y-43761063D01*
X19713563Y-43513409D01*
X19908143Y-43222199D01*
X20042172Y-42898623D01*
X20110500Y-42555118D01*
X20110500Y-42204882D01*
X29889500Y-42204882D01*
X29889500Y-42555118D01*
X29957828Y-42898623D01*
X30091857Y-43222199D01*
X30286437Y-43513409D01*
X30534091Y-43761063D01*
X30825301Y-43955643D01*
X31148877Y-44089672D01*
X31492382Y-44158000D01*
X31842618Y-44158000D01*
X32186123Y-44089672D01*
X32509699Y-43955643D01*
X32800909Y-43761063D01*
X33048563Y-43513409D01*
X33243143Y-43222199D01*
X33377172Y-42898623D01*
X33445500Y-42555118D01*
X33445500Y-42204882D01*
X33377172Y-41861377D01*
X33243143Y-41537801D01*
X33048563Y-41246591D01*
X32800909Y-40998937D01*
X32509699Y-40804357D01*
X32186123Y-40670328D01*
X31842618Y-40602000D01*
X31492382Y-40602000D01*
X31148877Y-40670328D01*
X30825301Y-40804357D01*
X30534091Y-40998937D01*
X30286437Y-41246591D01*
X30091857Y-41537801D01*
X29957828Y-41861377D01*
X29889500Y-42204882D01*
X20110500Y-42204882D01*
X20042172Y-41861377D01*
X19908143Y-41537801D01*
X19713563Y-41246591D01*
X19465909Y-40998937D01*
X19312199Y-40896231D01*
X21583374Y-40896231D01*
X21665727Y-41149289D01*
X21936418Y-41279086D01*
X22227230Y-41353580D01*
X22526988Y-41369908D01*
X22824171Y-41327443D01*
X23107359Y-41227816D01*
X23254273Y-41149289D01*
X23336626Y-40896231D01*
X22460000Y-40019605D01*
X21583374Y-40896231D01*
X19312199Y-40896231D01*
X19174699Y-40804357D01*
X18851123Y-40670328D01*
X18507618Y-40602000D01*
X18157382Y-40602000D01*
X17813877Y-40670328D01*
X17490301Y-40804357D01*
X17199091Y-40998937D01*
X16951437Y-41246591D01*
X16756857Y-41537801D01*
X16622828Y-41861377D01*
X16554500Y-42204882D01*
X8660000Y-42204882D01*
X8660000Y-39906988D01*
X20930092Y-39906988D01*
X20972557Y-40204171D01*
X21072184Y-40487359D01*
X21150711Y-40634273D01*
X21403769Y-40716626D01*
X22280395Y-39840000D01*
X22639605Y-39840000D01*
X23516231Y-40716626D01*
X23710583Y-40653378D01*
X23816232Y-40811493D01*
X24028507Y-41023768D01*
X24278115Y-41190551D01*
X24555466Y-41305434D01*
X24849899Y-41364000D01*
X25150101Y-41364000D01*
X25444534Y-41305434D01*
X25721885Y-41190551D01*
X25971493Y-41023768D01*
X26183768Y-40811493D01*
X26270000Y-40682438D01*
X26356232Y-40811493D01*
X26568507Y-41023768D01*
X26818115Y-41190551D01*
X27095466Y-41305434D01*
X27389899Y-41364000D01*
X27690101Y-41364000D01*
X27984534Y-41305434D01*
X28261885Y-41190551D01*
X28511493Y-41023768D01*
X28723768Y-40811493D01*
X28890551Y-40561885D01*
X29005434Y-40284534D01*
X29064000Y-39990101D01*
X29064000Y-39689899D01*
X29005434Y-39395466D01*
X28890551Y-39118115D01*
X28723768Y-38868507D01*
X28511493Y-38656232D01*
X28261885Y-38489449D01*
X27984534Y-38374566D01*
X27690101Y-38316000D01*
X27389899Y-38316000D01*
X27095466Y-38374566D01*
X26818115Y-38489449D01*
X26568507Y-38656232D01*
X26356232Y-38868507D01*
X26270000Y-38997562D01*
X26183768Y-38868507D01*
X25971493Y-38656232D01*
X25721885Y-38489449D01*
X25444534Y-38374566D01*
X25150101Y-38316000D01*
X24849899Y-38316000D01*
X24555466Y-38374566D01*
X24278115Y-38489449D01*
X24028507Y-38656232D01*
X23816232Y-38868507D01*
X23710583Y-39026622D01*
X23516231Y-38963374D01*
X22639605Y-39840000D01*
X22280395Y-39840000D01*
X21403769Y-38963374D01*
X21150711Y-39045727D01*
X21020914Y-39316418D01*
X20946420Y-39607230D01*
X20930092Y-39906988D01*
X8660000Y-39906988D01*
X8660000Y-38783769D01*
X21583374Y-38783769D01*
X22460000Y-39660395D01*
X23336626Y-38783769D01*
X23254273Y-38530711D01*
X22983582Y-38400914D01*
X22692770Y-38326420D01*
X22393012Y-38310092D01*
X22095829Y-38352557D01*
X21812641Y-38452184D01*
X21665727Y-38530711D01*
X21583374Y-38783769D01*
X8660000Y-38783769D01*
X8660000Y-36336087D01*
X9598434Y-35653589D01*
X60170000Y-35653589D01*
X60170000Y-35926411D01*
X60223225Y-36193989D01*
X60327629Y-36446043D01*
X60479201Y-36672886D01*
X60672114Y-36865799D01*
X60898957Y-37017371D01*
X61151011Y-37121775D01*
X61418589Y-37175000D01*
X61691411Y-37175000D01*
X61958989Y-37121775D01*
X62211043Y-37017371D01*
X62437886Y-36865799D01*
X62630799Y-36672886D01*
X62782371Y-36446043D01*
X62825000Y-36343127D01*
X62867629Y-36446043D01*
X63019201Y-36672886D01*
X63212114Y-36865799D01*
X63438957Y-37017371D01*
X63691011Y-37121775D01*
X63958589Y-37175000D01*
X64231411Y-37175000D01*
X64498989Y-37121775D01*
X64751043Y-37017371D01*
X64977886Y-36865799D01*
X65170799Y-36672886D01*
X65322371Y-36446043D01*
X65365000Y-36343127D01*
X65407629Y-36446043D01*
X65559201Y-36672886D01*
X65752114Y-36865799D01*
X65978957Y-37017371D01*
X66231011Y-37121775D01*
X66498589Y-37175000D01*
X66771411Y-37175000D01*
X67038989Y-37121775D01*
X67291043Y-37017371D01*
X67517886Y-36865799D01*
X67636692Y-36746993D01*
X68397612Y-36746993D01*
X68463137Y-36985860D01*
X68710116Y-37101760D01*
X68974960Y-37167250D01*
X69247492Y-37179812D01*
X69517238Y-37138965D01*
X69773832Y-37046277D01*
X69886863Y-36985860D01*
X69952388Y-36746993D01*
X69175000Y-35969605D01*
X68397612Y-36746993D01*
X67636692Y-36746993D01*
X67710799Y-36672886D01*
X67862371Y-36446043D01*
X67903511Y-36346721D01*
X67918723Y-36388832D01*
X67979140Y-36501863D01*
X68218007Y-36567388D01*
X68995395Y-35790000D01*
X69354605Y-35790000D01*
X70131993Y-36567388D01*
X70370860Y-36501863D01*
X70486760Y-36254884D01*
X70552250Y-35990040D01*
X70564812Y-35717508D01*
X70523965Y-35447762D01*
X70431277Y-35191168D01*
X70370860Y-35078137D01*
X70131993Y-35012612D01*
X69354605Y-35790000D01*
X68995395Y-35790000D01*
X68218007Y-35012612D01*
X67979140Y-35078137D01*
X67904836Y-35236477D01*
X67862371Y-35133957D01*
X67710799Y-34907114D01*
X67517886Y-34714201D01*
X67291043Y-34562629D01*
X67038989Y-34458225D01*
X66771411Y-34405000D01*
X66498589Y-34405000D01*
X66231011Y-34458225D01*
X65978957Y-34562629D01*
X65752114Y-34714201D01*
X65559201Y-34907114D01*
X65407629Y-35133957D01*
X65365000Y-35236873D01*
X65322371Y-35133957D01*
X65170799Y-34907114D01*
X64977886Y-34714201D01*
X64751043Y-34562629D01*
X64498989Y-34458225D01*
X64231411Y-34405000D01*
X63958589Y-34405000D01*
X63691011Y-34458225D01*
X63438957Y-34562629D01*
X63212114Y-34714201D01*
X63019201Y-34907114D01*
X62867629Y-35133957D01*
X62825000Y-35236873D01*
X62782371Y-35133957D01*
X62630799Y-34907114D01*
X62437886Y-34714201D01*
X62211043Y-34562629D01*
X61958989Y-34458225D01*
X61691411Y-34405000D01*
X61418589Y-34405000D01*
X61151011Y-34458225D01*
X60898957Y-34562629D01*
X60672114Y-34714201D01*
X60479201Y-34907114D01*
X60327629Y-35133957D01*
X60223225Y-35386011D01*
X60170000Y-35653589D01*
X9598434Y-35653589D01*
X13090934Y-33113589D01*
X61440000Y-33113589D01*
X61440000Y-33386411D01*
X61493225Y-33653989D01*
X61597629Y-33906043D01*
X61749201Y-34132886D01*
X61942114Y-34325799D01*
X62168957Y-34477371D01*
X62421011Y-34581775D01*
X62688589Y-34635000D01*
X62961411Y-34635000D01*
X63228989Y-34581775D01*
X63481043Y-34477371D01*
X63707886Y-34325799D01*
X63900799Y-34132886D01*
X64052371Y-33906043D01*
X64095000Y-33803127D01*
X64137629Y-33906043D01*
X64289201Y-34132886D01*
X64482114Y-34325799D01*
X64708957Y-34477371D01*
X64961011Y-34581775D01*
X65228589Y-34635000D01*
X65501411Y-34635000D01*
X65768989Y-34581775D01*
X66021043Y-34477371D01*
X66247886Y-34325799D01*
X66440799Y-34132886D01*
X66592371Y-33906043D01*
X66635000Y-33803127D01*
X66677629Y-33906043D01*
X66829201Y-34132886D01*
X67022114Y-34325799D01*
X67248957Y-34477371D01*
X67501011Y-34581775D01*
X67768589Y-34635000D01*
X68041411Y-34635000D01*
X68308989Y-34581775D01*
X68561043Y-34477371D01*
X68787886Y-34325799D01*
X68980799Y-34132886D01*
X69058555Y-34016517D01*
X69069188Y-34124482D01*
X69105498Y-34244180D01*
X69164463Y-34354494D01*
X69205873Y-34404952D01*
X69102508Y-34400188D01*
X68832762Y-34441035D01*
X68576168Y-34533723D01*
X68463137Y-34594140D01*
X68397612Y-34833007D01*
X69175000Y-35610395D01*
X69952388Y-34833007D01*
X69898545Y-34636725D01*
X70159250Y-34635000D01*
X70318000Y-34476250D01*
X70318000Y-33377000D01*
X70572000Y-33377000D01*
X70572000Y-34476250D01*
X70730750Y-34635000D01*
X71195000Y-34638072D01*
X71319482Y-34625812D01*
X71439180Y-34589502D01*
X71549494Y-34530537D01*
X71646185Y-34451185D01*
X71725537Y-34354494D01*
X71784502Y-34244180D01*
X71820812Y-34124482D01*
X71833072Y-34000000D01*
X71830000Y-33535750D01*
X71671250Y-33377000D01*
X70572000Y-33377000D01*
X70318000Y-33377000D01*
X70298000Y-33377000D01*
X70298000Y-33123000D01*
X70318000Y-33123000D01*
X70318000Y-32023750D01*
X70572000Y-32023750D01*
X70572000Y-33123000D01*
X71671250Y-33123000D01*
X71830000Y-32964250D01*
X71833072Y-32500000D01*
X71820812Y-32375518D01*
X71784502Y-32255820D01*
X71725537Y-32145506D01*
X71646185Y-32048815D01*
X71549494Y-31969463D01*
X71439180Y-31910498D01*
X71319482Y-31874188D01*
X71195000Y-31861928D01*
X70730750Y-31865000D01*
X70572000Y-32023750D01*
X70318000Y-32023750D01*
X70159250Y-31865000D01*
X69695000Y-31861928D01*
X69570518Y-31874188D01*
X69450820Y-31910498D01*
X69340506Y-31969463D01*
X69243815Y-32048815D01*
X69164463Y-32145506D01*
X69105498Y-32255820D01*
X69069188Y-32375518D01*
X69058555Y-32483483D01*
X68980799Y-32367114D01*
X68787886Y-32174201D01*
X68561043Y-32022629D01*
X68308989Y-31918225D01*
X68041411Y-31865000D01*
X67768589Y-31865000D01*
X67501011Y-31918225D01*
X67248957Y-32022629D01*
X67022114Y-32174201D01*
X66829201Y-32367114D01*
X66677629Y-32593957D01*
X66635000Y-32696873D01*
X66592371Y-32593957D01*
X66440799Y-32367114D01*
X66247886Y-32174201D01*
X66021043Y-32022629D01*
X65768989Y-31918225D01*
X65501411Y-31865000D01*
X65228589Y-31865000D01*
X64961011Y-31918225D01*
X64708957Y-32022629D01*
X64482114Y-32174201D01*
X64289201Y-32367114D01*
X64137629Y-32593957D01*
X64095000Y-32696873D01*
X64052371Y-32593957D01*
X63900799Y-32367114D01*
X63707886Y-32174201D01*
X63481043Y-32022629D01*
X63228989Y-31918225D01*
X62961411Y-31865000D01*
X62688589Y-31865000D01*
X62421011Y-31918225D01*
X62168957Y-32022629D01*
X61942114Y-32174201D01*
X61749201Y-32367114D01*
X61597629Y-32593957D01*
X61493225Y-32846011D01*
X61440000Y-33113589D01*
X13090934Y-33113589D01*
X19965727Y-28113740D01*
X47775000Y-28113740D01*
X47775000Y-28406260D01*
X47832068Y-28693158D01*
X47944010Y-28963411D01*
X48106525Y-29206632D01*
X48313368Y-29413475D01*
X48487760Y-29530000D01*
X48313368Y-29646525D01*
X48106525Y-29853368D01*
X47944010Y-30096589D01*
X47832068Y-30366842D01*
X47775000Y-30653740D01*
X47775000Y-30946260D01*
X47832068Y-31233158D01*
X47944010Y-31503411D01*
X48106525Y-31746632D01*
X48313368Y-31953475D01*
X48556589Y-32115990D01*
X48826842Y-32227932D01*
X49113740Y-32285000D01*
X49406260Y-32285000D01*
X49693158Y-32227932D01*
X49963411Y-32115990D01*
X50206632Y-31953475D01*
X50393715Y-31766392D01*
X50461595Y-31893386D01*
X50572038Y-32027962D01*
X50706614Y-32138405D01*
X50860150Y-32220472D01*
X51026746Y-32271008D01*
X51200000Y-32288072D01*
X52400000Y-32288072D01*
X52573254Y-32271008D01*
X52739850Y-32220472D01*
X52893386Y-32138405D01*
X53027962Y-32027962D01*
X53138405Y-31893386D01*
X53220472Y-31739850D01*
X53271008Y-31573254D01*
X53288072Y-31400000D01*
X53288072Y-30200000D01*
X53271008Y-30026746D01*
X53220472Y-29860150D01*
X53138405Y-29706614D01*
X53027962Y-29572038D01*
X52893386Y-29461595D01*
X52766392Y-29393715D01*
X52953475Y-29206632D01*
X53115990Y-28963411D01*
X53227932Y-28693158D01*
X53285000Y-28406260D01*
X53285000Y-28113740D01*
X53227932Y-27826842D01*
X53115990Y-27556589D01*
X52953475Y-27313368D01*
X52746632Y-27106525D01*
X52572240Y-26990000D01*
X52746632Y-26873475D01*
X52940235Y-26679872D01*
X58050000Y-26679872D01*
X58050000Y-27120128D01*
X58135890Y-27551925D01*
X58304369Y-27958669D01*
X58548962Y-28324729D01*
X58860271Y-28636038D01*
X59226331Y-28880631D01*
X59633075Y-29049110D01*
X60064872Y-29135000D01*
X60505128Y-29135000D01*
X60936925Y-29049110D01*
X61343669Y-28880631D01*
X61709729Y-28636038D01*
X62021038Y-28324729D01*
X62265631Y-27958669D01*
X62434110Y-27551925D01*
X62520000Y-27120128D01*
X62520000Y-26679872D01*
X69480000Y-26679872D01*
X69480000Y-27120128D01*
X69565890Y-27551925D01*
X69734369Y-27958669D01*
X69978962Y-28324729D01*
X70290271Y-28636038D01*
X70656331Y-28880631D01*
X71063075Y-29049110D01*
X71494872Y-29135000D01*
X71935128Y-29135000D01*
X72366925Y-29049110D01*
X72773669Y-28880631D01*
X73139729Y-28636038D01*
X73451038Y-28324729D01*
X73695631Y-27958669D01*
X73864110Y-27551925D01*
X73950000Y-27120128D01*
X73950000Y-26679872D01*
X73864110Y-26248075D01*
X73695631Y-25841331D01*
X73451038Y-25475271D01*
X73139729Y-25163962D01*
X72773669Y-24919369D01*
X72366925Y-24750890D01*
X71935128Y-24665000D01*
X71494872Y-24665000D01*
X71063075Y-24750890D01*
X70656331Y-24919369D01*
X70290271Y-25163962D01*
X69978962Y-25475271D01*
X69734369Y-25841331D01*
X69565890Y-26248075D01*
X69480000Y-26679872D01*
X62520000Y-26679872D01*
X62434110Y-26248075D01*
X62265631Y-25841331D01*
X62021038Y-25475271D01*
X61709729Y-25163962D01*
X61343669Y-24919369D01*
X60936925Y-24750890D01*
X60505128Y-24665000D01*
X60064872Y-24665000D01*
X59633075Y-24750890D01*
X59226331Y-24919369D01*
X58860271Y-25163962D01*
X58548962Y-25475271D01*
X58304369Y-25841331D01*
X58135890Y-26248075D01*
X58050000Y-26679872D01*
X52940235Y-26679872D01*
X52953475Y-26666632D01*
X53115990Y-26423411D01*
X53227932Y-26153158D01*
X53285000Y-25866260D01*
X53285000Y-25573740D01*
X53227932Y-25286842D01*
X53115990Y-25016589D01*
X52953475Y-24773368D01*
X52746632Y-24566525D01*
X52503411Y-24404010D01*
X52233158Y-24292068D01*
X51946260Y-24235000D01*
X51653740Y-24235000D01*
X51366842Y-24292068D01*
X51096589Y-24404010D01*
X50853368Y-24566525D01*
X50646525Y-24773368D01*
X50530689Y-24946729D01*
X50288397Y-24871208D01*
X49439605Y-25720000D01*
X50288397Y-26568792D01*
X50530689Y-26493271D01*
X50646525Y-26666632D01*
X50853368Y-26873475D01*
X51027760Y-26990000D01*
X50853368Y-27106525D01*
X50646525Y-27313368D01*
X50530000Y-27487760D01*
X50413475Y-27313368D01*
X50206632Y-27106525D01*
X50033271Y-26990689D01*
X50108792Y-26748397D01*
X49260000Y-25899605D01*
X48411208Y-26748397D01*
X48486729Y-26990689D01*
X48313368Y-27106525D01*
X48106525Y-27313368D01*
X47944010Y-27556589D01*
X47832068Y-27826842D01*
X47775000Y-28113740D01*
X19965727Y-28113740D01*
X23162890Y-25788531D01*
X47769389Y-25788531D01*
X47811401Y-26078019D01*
X47909081Y-26353747D01*
X47982528Y-26491157D01*
X48231603Y-26568792D01*
X49080395Y-25720000D01*
X48231603Y-24871208D01*
X47982528Y-24948843D01*
X47856629Y-25212883D01*
X47784661Y-25496411D01*
X47769389Y-25788531D01*
X23162890Y-25788531D01*
X24671166Y-24691603D01*
X48411208Y-24691603D01*
X49260000Y-25540395D01*
X50108792Y-24691603D01*
X50031157Y-24442528D01*
X49767117Y-24316629D01*
X49483589Y-24244661D01*
X49191469Y-24229389D01*
X48901981Y-24271401D01*
X48626253Y-24369081D01*
X48488843Y-24442528D01*
X48411208Y-24691603D01*
X24671166Y-24691603D01*
X30214621Y-20660000D01*
X101785381Y-20660000D01*
X123340001Y-36336088D01*
G37*
X123340001Y-36336088D02*
X123340000Y-71167721D01*
X123334229Y-71226578D01*
X123326511Y-71252143D01*
X123313972Y-71275724D01*
X123297093Y-71296420D01*
X123276516Y-71313442D01*
X123253026Y-71326144D01*
X123227516Y-71334040D01*
X123170815Y-71340000D01*
X8832279Y-71340000D01*
X8773422Y-71334229D01*
X8747857Y-71326511D01*
X8724276Y-71313972D01*
X8703580Y-71297093D01*
X8686558Y-71276516D01*
X8673856Y-71253026D01*
X8665960Y-71227516D01*
X8660000Y-71170815D01*
X8660000Y-65900000D01*
X63191928Y-65900000D01*
X63204188Y-66024482D01*
X63240498Y-66144180D01*
X63299463Y-66254494D01*
X63378815Y-66351185D01*
X63475506Y-66430537D01*
X63585820Y-66489502D01*
X63705518Y-66525812D01*
X63830000Y-66538072D01*
X64444250Y-66535000D01*
X64603000Y-66376250D01*
X64603000Y-65127000D01*
X63353750Y-65127000D01*
X63195000Y-65285750D01*
X63191928Y-65900000D01*
X8660000Y-65900000D01*
X8660000Y-64100000D01*
X63191928Y-64100000D01*
X63195000Y-64714250D01*
X63353750Y-64873000D01*
X64603000Y-64873000D01*
X64603000Y-63623750D01*
X64857000Y-63623750D01*
X64857000Y-64873000D01*
X64877000Y-64873000D01*
X64877000Y-65127000D01*
X64857000Y-65127000D01*
X64857000Y-66376250D01*
X65015750Y-66535000D01*
X65630000Y-66538072D01*
X65754482Y-66525812D01*
X65874180Y-66489502D01*
X65984494Y-66430537D01*
X66081185Y-66351185D01*
X66160537Y-66254494D01*
X66219502Y-66144180D01*
X66225056Y-66125873D01*
X66291495Y-66192312D01*
X66542905Y-66360299D01*
X66822257Y-66476011D01*
X67118816Y-66535000D01*
X67421184Y-66535000D01*
X67717743Y-66476011D01*
X67997095Y-66360299D01*
X68248505Y-66192312D01*
X68462312Y-65978505D01*
X68630299Y-65727095D01*
X68746011Y-65447743D01*
X68805000Y-65151184D01*
X68805000Y-64848816D01*
X68746011Y-64552257D01*
X68630299Y-64272905D01*
X68462312Y-64021495D01*
X68248505Y-63807688D01*
X67997095Y-63639701D01*
X67717743Y-63523989D01*
X67421184Y-63465000D01*
X67118816Y-63465000D01*
X66822257Y-63523989D01*
X66542905Y-63639701D01*
X66291495Y-63807688D01*
X66225056Y-63874127D01*
X66219502Y-63855820D01*
X66160537Y-63745506D01*
X66081185Y-63648815D01*
X65984494Y-63569463D01*
X65874180Y-63510498D01*
X65754482Y-63474188D01*
X65630000Y-63461928D01*
X65015750Y-63465000D01*
X64857000Y-63623750D01*
X64603000Y-63623750D01*
X64444250Y-63465000D01*
X63830000Y-63461928D01*
X63705518Y-63474188D01*
X63585820Y-63510498D01*
X63475506Y-63569463D01*
X63378815Y-63648815D01*
X63299463Y-63745506D01*
X63240498Y-63855820D01*
X63204188Y-63975518D01*
X63191928Y-64100000D01*
X8660000Y-64100000D01*
X8660000Y-57444882D01*
X16554500Y-57444882D01*
X16554500Y-57795118D01*
X16622828Y-58138623D01*
X16756857Y-58462199D01*
X16951437Y-58753409D01*
X17199091Y-59001063D01*
X17490301Y-59195643D01*
X17813877Y-59329672D01*
X18157382Y-59398000D01*
X18507618Y-59398000D01*
X18851123Y-59329672D01*
X19174699Y-59195643D01*
X19465909Y-59001063D01*
X19713563Y-58753409D01*
X19908143Y-58462199D01*
X20042172Y-58138623D01*
X20110500Y-57795118D01*
X20110500Y-57444882D01*
X29889500Y-57444882D01*
X29889500Y-57795118D01*
X29957828Y-58138623D01*
X30091857Y-58462199D01*
X30286437Y-58753409D01*
X30534091Y-59001063D01*
X30825301Y-59195643D01*
X31148877Y-59329672D01*
X31492382Y-59398000D01*
X31842618Y-59398000D01*
X32186123Y-59329672D01*
X32509699Y-59195643D01*
X32800909Y-59001063D01*
X33048563Y-58753409D01*
X33243143Y-58462199D01*
X33372459Y-58150000D01*
X94861928Y-58150000D01*
X94874188Y-58274482D01*
X94910498Y-58394180D01*
X94969463Y-58504494D01*
X95048815Y-58601185D01*
X95145506Y-58680537D01*
X95255820Y-58739502D01*
X95375518Y-58775812D01*
X95500000Y-58788072D01*
X95989250Y-58785000D01*
X96148000Y-58626250D01*
X96148000Y-57627000D01*
X96402000Y-57627000D01*
X96402000Y-58626250D01*
X96560750Y-58785000D01*
X97050000Y-58788072D01*
X97174482Y-58775812D01*
X97294180Y-58739502D01*
X97404494Y-58680537D01*
X97501185Y-58601185D01*
X97580537Y-58504494D01*
X97639502Y-58394180D01*
X97675812Y-58274482D01*
X97688072Y-58150000D01*
X102811928Y-58150000D01*
X102824188Y-58274482D01*
X102860498Y-58394180D01*
X102919463Y-58504494D01*
X102998815Y-58601185D01*
X103095506Y-58680537D01*
X103205820Y-58739502D01*
X103325518Y-58775812D01*
X103450000Y-58788072D01*
X103939250Y-58785000D01*
X104098000Y-58626250D01*
X104098000Y-57627000D01*
X104352000Y-57627000D01*
X104352000Y-58626250D01*
X104510750Y-58785000D01*
X105000000Y-58788072D01*
X105124482Y-58775812D01*
X105244180Y-58739502D01*
X105354494Y-58680537D01*
X105451185Y-58601185D01*
X105530537Y-58504494D01*
X105589502Y-58394180D01*
X105625812Y-58274482D01*
X105638072Y-58150000D01*
X105635000Y-57785750D01*
X105476250Y-57627000D01*
X104352000Y-57627000D01*
X104098000Y-57627000D01*
X102973750Y-57627000D01*
X102815000Y-57785750D01*
X102811928Y-58150000D01*
X97688072Y-58150000D01*
X97685000Y-57785750D01*
X97526250Y-57627000D01*
X96402000Y-57627000D01*
X96148000Y-57627000D01*
X95023750Y-57627000D01*
X94865000Y-57785750D01*
X94861928Y-58150000D01*
X33372459Y-58150000D01*
X33377172Y-58138623D01*
X33445500Y-57795118D01*
X33445500Y-57444882D01*
X33377172Y-57101377D01*
X33273049Y-56850000D01*
X94861928Y-56850000D01*
X94865000Y-57214250D01*
X95023750Y-57373000D01*
X96148000Y-57373000D01*
X96148000Y-56373750D01*
X96402000Y-56373750D01*
X96402000Y-57373000D01*
X97526250Y-57373000D01*
X97685000Y-57214250D01*
X97688072Y-56850000D01*
X102811928Y-56850000D01*
X102815000Y-57214250D01*
X102973750Y-57373000D01*
X104098000Y-57373000D01*
X104098000Y-56373750D01*
X104352000Y-56373750D01*
X104352000Y-57373000D01*
X105476250Y-57373000D01*
X105635000Y-57214250D01*
X105638072Y-56850000D01*
X105625812Y-56725518D01*
X105589502Y-56605820D01*
X105530537Y-56495506D01*
X105451185Y-56398815D01*
X105354494Y-56319463D01*
X105244180Y-56260498D01*
X105124482Y-56224188D01*
X105000000Y-56211928D01*
X104510750Y-56215000D01*
X104352000Y-56373750D01*
X104098000Y-56373750D01*
X103939250Y-56215000D01*
X103450000Y-56211928D01*
X103325518Y-56224188D01*
X103205820Y-56260498D01*
X103095506Y-56319463D01*
X102998815Y-56398815D01*
X102919463Y-56495506D01*
X102860498Y-56605820D01*
X102824188Y-56725518D01*
X102811928Y-56850000D01*
X97688072Y-56850000D01*
X97675812Y-56725518D01*
X97639502Y-56605820D01*
X97580537Y-56495506D01*
X97501185Y-56398815D01*
X97404494Y-56319463D01*
X97294180Y-56260498D01*
X97174482Y-56224188D01*
X97050000Y-56211928D01*
X96560750Y-56215000D01*
X96402000Y-56373750D01*
X96148000Y-56373750D01*
X95989250Y-56215000D01*
X95500000Y-56211928D01*
X95375518Y-56224188D01*
X95255820Y-56260498D01*
X95145506Y-56319463D01*
X95048815Y-56398815D01*
X94969463Y-56495506D01*
X94910498Y-56605820D01*
X94874188Y-56725518D01*
X94861928Y-56850000D01*
X33273049Y-56850000D01*
X33243143Y-56777801D01*
X33048563Y-56486591D01*
X32800909Y-56238937D01*
X32509699Y-56044357D01*
X32186123Y-55910328D01*
X31842618Y-55842000D01*
X31492382Y-55842000D01*
X31148877Y-55910328D01*
X30825301Y-56044357D01*
X30534091Y-56238937D01*
X30286437Y-56486591D01*
X30091857Y-56777801D01*
X29957828Y-57101377D01*
X29889500Y-57444882D01*
X20110500Y-57444882D01*
X20042172Y-57101377D01*
X19908143Y-56777801D01*
X19713563Y-56486591D01*
X19465909Y-56238937D01*
X19174699Y-56044357D01*
X18851123Y-55910328D01*
X18507618Y-55842000D01*
X18157382Y-55842000D01*
X17813877Y-55910328D01*
X17490301Y-56044357D01*
X17199091Y-56238937D01*
X16951437Y-56486591D01*
X16756857Y-56777801D01*
X16622828Y-57101377D01*
X16554500Y-57444882D01*
X8660000Y-57444882D01*
X8660000Y-53596231D01*
X13963374Y-53596231D01*
X14045727Y-53849289D01*
X14316418Y-53979086D01*
X14607230Y-54053580D01*
X14906988Y-54069908D01*
X15204171Y-54027443D01*
X15487359Y-53927816D01*
X15634273Y-53849289D01*
X15716626Y-53596231D01*
X14840000Y-52719605D01*
X13963374Y-53596231D01*
X8660000Y-53596231D01*
X8660000Y-52606988D01*
X13310092Y-52606988D01*
X13352557Y-52904171D01*
X13452184Y-53187359D01*
X13530711Y-53334273D01*
X13783769Y-53416626D01*
X14660395Y-52540000D01*
X15019605Y-52540000D01*
X15896231Y-53416626D01*
X16149289Y-53334273D01*
X16279086Y-53063582D01*
X16288994Y-53024899D01*
X31096000Y-53024899D01*
X31096000Y-53325101D01*
X31154566Y-53619534D01*
X31269449Y-53896885D01*
X31436232Y-54146493D01*
X31648507Y-54358768D01*
X31898115Y-54525551D01*
X32175466Y-54640434D01*
X32469899Y-54699000D01*
X32770101Y-54699000D01*
X33064534Y-54640434D01*
X33341885Y-54525551D01*
X33591493Y-54358768D01*
X33803768Y-54146493D01*
X33970551Y-53896885D01*
X34085434Y-53619534D01*
X34144000Y-53325101D01*
X34144000Y-53024899D01*
X36176000Y-53024899D01*
X36176000Y-53325101D01*
X36234566Y-53619534D01*
X36349449Y-53896885D01*
X36516232Y-54146493D01*
X36728507Y-54358768D01*
X36978115Y-54525551D01*
X37255466Y-54640434D01*
X37549899Y-54699000D01*
X37850101Y-54699000D01*
X38144534Y-54640434D01*
X38421885Y-54525551D01*
X38671493Y-54358768D01*
X38883768Y-54146493D01*
X39050551Y-53896885D01*
X39165434Y-53619534D01*
X39224000Y-53325101D01*
X39224000Y-53024899D01*
X39165434Y-52730466D01*
X39050551Y-52453115D01*
X38883768Y-52203507D01*
X38671493Y-51991232D01*
X38421885Y-51824449D01*
X38144534Y-51709566D01*
X37850101Y-51651000D01*
X37549899Y-51651000D01*
X37255466Y-51709566D01*
X36978115Y-51824449D01*
X36728507Y-51991232D01*
X36516232Y-52203507D01*
X36349449Y-52453115D01*
X36234566Y-52730466D01*
X36176000Y-53024899D01*
X34144000Y-53024899D01*
X34085434Y-52730466D01*
X33970551Y-52453115D01*
X33803768Y-52203507D01*
X33591493Y-51991232D01*
X33341885Y-51824449D01*
X33064534Y-51709566D01*
X32770101Y-51651000D01*
X32469899Y-51651000D01*
X32175466Y-51709566D01*
X31898115Y-51824449D01*
X31648507Y-51991232D01*
X31436232Y-52203507D01*
X31269449Y-52453115D01*
X31154566Y-52730466D01*
X31096000Y-53024899D01*
X16288994Y-53024899D01*
X16353580Y-52772770D01*
X16369908Y-52473012D01*
X16327443Y-52175829D01*
X16227816Y-51892641D01*
X16149289Y-51745727D01*
X15896231Y-51663374D01*
X15019605Y-52540000D01*
X14660395Y-52540000D01*
X13783769Y-51663374D01*
X13530711Y-51745727D01*
X13400914Y-52016418D01*
X13326420Y-52307230D01*
X13310092Y-52606988D01*
X8660000Y-52606988D01*
X8660000Y-47309899D01*
X13316000Y-47309899D01*
X13316000Y-47610101D01*
X13374566Y-47904534D01*
X13489449Y-48181885D01*
X13656232Y-48431493D01*
X13868507Y-48643768D01*
X13997562Y-48730000D01*
X13868507Y-48816232D01*
X13656232Y-49028507D01*
X13489449Y-49278115D01*
X13374566Y-49555466D01*
X13316000Y-49849899D01*
X13316000Y-50150101D01*
X13374566Y-50444534D01*
X13489449Y-50721885D01*
X13656232Y-50971493D01*
X13868507Y-51183768D01*
X14026622Y-51289417D01*
X13963374Y-51483769D01*
X14840000Y-52360395D01*
X15716626Y-51483769D01*
X15653378Y-51289417D01*
X15811493Y-51183768D01*
X16023768Y-50971493D01*
X16190551Y-50721885D01*
X16305434Y-50444534D01*
X16364000Y-50150101D01*
X16364000Y-49849899D01*
X16305434Y-49555466D01*
X16190551Y-49278115D01*
X16023768Y-49028507D01*
X15995261Y-49000000D01*
X60561928Y-49000000D01*
X60561928Y-51000000D01*
X60574188Y-51124482D01*
X60610498Y-51244180D01*
X60669463Y-51354494D01*
X60748815Y-51451185D01*
X60845506Y-51530537D01*
X60955820Y-51589502D01*
X61075518Y-51625812D01*
X61200000Y-51638072D01*
X63200000Y-51638072D01*
X63324482Y-51625812D01*
X63444180Y-51589502D01*
X63554494Y-51530537D01*
X63651185Y-51451185D01*
X63730537Y-51354494D01*
X63789502Y-51244180D01*
X63822496Y-51135413D01*
X68844192Y-51135413D01*
X68939956Y-51399814D01*
X69229571Y-51540704D01*
X69541108Y-51622384D01*
X69862595Y-51641718D01*
X70181675Y-51597961D01*
X70486088Y-51492795D01*
X70660044Y-51399814D01*
X70750524Y-51150000D01*
X84111928Y-51150000D01*
X84111928Y-52850000D01*
X84124188Y-52974482D01*
X84160498Y-53094180D01*
X84219463Y-53204494D01*
X84298815Y-53301185D01*
X84395506Y-53380537D01*
X84505820Y-53439502D01*
X84625518Y-53475812D01*
X84750000Y-53488072D01*
X86450000Y-53488072D01*
X86574482Y-53475812D01*
X86694180Y-53439502D01*
X86804494Y-53380537D01*
X86901185Y-53301185D01*
X86980537Y-53204494D01*
X87039502Y-53094180D01*
X87075812Y-52974482D01*
X87088072Y-52850000D01*
X87088072Y-51586729D01*
X87756804Y-50917998D01*
X87724188Y-51025518D01*
X87711928Y-51150000D01*
X87711928Y-52850000D01*
X87724188Y-52974482D01*
X87760498Y-53094180D01*
X87819463Y-53204494D01*
X87898815Y-53301185D01*
X87995506Y-53380537D01*
X88105820Y-53439502D01*
X88225518Y-53475812D01*
X88350000Y-53488072D01*
X90050000Y-53488072D01*
X90174482Y-53475812D01*
X90294180Y-53439502D01*
X90404494Y-53380537D01*
X90501185Y-53301185D01*
X90580537Y-53204494D01*
X90639502Y-53094180D01*
X90675812Y-52974482D01*
X90688072Y-52850000D01*
X90688072Y-52760000D01*
X94185199Y-52760000D01*
X94861928Y-53436730D01*
X94861928Y-53650000D01*
X94874188Y-53774482D01*
X94910498Y-53894180D01*
X94969463Y-54004494D01*
X95048815Y-54101185D01*
X95145506Y-54180537D01*
X95255820Y-54239502D01*
X95375518Y-54275812D01*
X95500000Y-54288072D01*
X97050000Y-54288072D01*
X97174482Y-54275812D01*
X97294180Y-54239502D01*
X97404494Y-54180537D01*
X97501185Y-54101185D01*
X97580537Y-54004494D01*
X97639502Y-53894180D01*
X97675812Y-53774482D01*
X97677238Y-53760000D01*
X102822762Y-53760000D01*
X102824188Y-53774482D01*
X102860498Y-53894180D01*
X102919463Y-54004494D01*
X102998815Y-54101185D01*
X103095506Y-54180537D01*
X103205820Y-54239502D01*
X103325518Y-54275812D01*
X103450000Y-54288072D01*
X105000000Y-54288072D01*
X105124482Y-54275812D01*
X105244180Y-54239502D01*
X105354494Y-54180537D01*
X105451185Y-54101185D01*
X105530537Y-54004494D01*
X105589502Y-53894180D01*
X105625812Y-53774482D01*
X105638072Y-53650000D01*
X105638072Y-52350000D01*
X105625812Y-52225518D01*
X105589502Y-52105820D01*
X105530537Y-51995506D01*
X105451185Y-51898815D01*
X105354494Y-51819463D01*
X105244180Y-51760498D01*
X105124482Y-51724188D01*
X105000000Y-51711928D01*
X103450000Y-51711928D01*
X103325518Y-51724188D01*
X103205820Y-51760498D01*
X103095506Y-51819463D01*
X102998815Y-51898815D01*
X102919463Y-51995506D01*
X102860498Y-52105820D01*
X102824188Y-52225518D01*
X102822762Y-52240000D01*
X97677238Y-52240000D01*
X97675812Y-52225518D01*
X97639502Y-52105820D01*
X97580537Y-51995506D01*
X97501185Y-51898815D01*
X97404494Y-51819463D01*
X97294180Y-51760498D01*
X97174482Y-51724188D01*
X97050000Y-51711928D01*
X95500000Y-51711928D01*
X95375518Y-51724188D01*
X95316801Y-51742000D01*
X95063804Y-51489002D01*
X95040001Y-51459999D01*
X94924276Y-51365026D01*
X94792247Y-51294454D01*
X94648986Y-51250997D01*
X94537333Y-51240000D01*
X94537322Y-51240000D01*
X94500000Y-51236324D01*
X94462678Y-51240000D01*
X90688072Y-51240000D01*
X90688072Y-51150000D01*
X90675812Y-51025518D01*
X90639502Y-50905820D01*
X90580537Y-50795506D01*
X90551398Y-50760000D01*
X93712678Y-50760000D01*
X93750000Y-50763676D01*
X93787322Y-50760000D01*
X93787333Y-50760000D01*
X93898986Y-50749003D01*
X94042247Y-50705546D01*
X94174276Y-50634974D01*
X94290001Y-50540001D01*
X94313804Y-50510997D01*
X97174801Y-47650000D01*
X108361928Y-47650000D01*
X108374188Y-47774482D01*
X108410498Y-47894180D01*
X108469463Y-48004494D01*
X108548815Y-48101185D01*
X108645506Y-48180537D01*
X108755820Y-48239502D01*
X108875518Y-48275812D01*
X109000000Y-48288072D01*
X109489250Y-48285000D01*
X109648000Y-48126250D01*
X109648000Y-47127000D01*
X109902000Y-47127000D01*
X109902000Y-48126250D01*
X110060750Y-48285000D01*
X110550000Y-48288072D01*
X110674482Y-48275812D01*
X110794180Y-48239502D01*
X110904494Y-48180537D01*
X111001185Y-48101185D01*
X111080537Y-48004494D01*
X111139502Y-47894180D01*
X111175812Y-47774482D01*
X111188072Y-47650000D01*
X116311928Y-47650000D01*
X116324188Y-47774482D01*
X116360498Y-47894180D01*
X116419463Y-48004494D01*
X116498815Y-48101185D01*
X116595506Y-48180537D01*
X116705820Y-48239502D01*
X116825518Y-48275812D01*
X116950000Y-48288072D01*
X117439250Y-48285000D01*
X117598000Y-48126250D01*
X117598000Y-47127000D01*
X117852000Y-47127000D01*
X117852000Y-48126250D01*
X118010750Y-48285000D01*
X118500000Y-48288072D01*
X118624482Y-48275812D01*
X118744180Y-48239502D01*
X118854494Y-48180537D01*
X118951185Y-48101185D01*
X119030537Y-48004494D01*
X119089502Y-47894180D01*
X119125812Y-47774482D01*
X119138072Y-47650000D01*
X119135000Y-47285750D01*
X118976250Y-47127000D01*
X117852000Y-47127000D01*
X117598000Y-47127000D01*
X116473750Y-47127000D01*
X116315000Y-47285750D01*
X116311928Y-47650000D01*
X111188072Y-47650000D01*
X111185000Y-47285750D01*
X111026250Y-47127000D01*
X109902000Y-47127000D01*
X109648000Y-47127000D01*
X108523750Y-47127000D01*
X108365000Y-47285750D01*
X108361928Y-47650000D01*
X97174801Y-47650000D01*
X98474801Y-46350000D01*
X108361928Y-46350000D01*
X108365000Y-46714250D01*
X108523750Y-46873000D01*
X109648000Y-46873000D01*
X109648000Y-45873750D01*
X109902000Y-45873750D01*
X109902000Y-46873000D01*
X111026250Y-46873000D01*
X111185000Y-46714250D01*
X111188072Y-46350000D01*
X116311928Y-46350000D01*
X116315000Y-46714250D01*
X116473750Y-46873000D01*
X117598000Y-46873000D01*
X117598000Y-45873750D01*
X117852000Y-45873750D01*
X117852000Y-46873000D01*
X118976250Y-46873000D01*
X119135000Y-46714250D01*
X119138072Y-46350000D01*
X119125812Y-46225518D01*
X119089502Y-46105820D01*
X119030537Y-45995506D01*
X118951185Y-45898815D01*
X118854494Y-45819463D01*
X118744180Y-45760498D01*
X118624482Y-45724188D01*
X118500000Y-45711928D01*
X118010750Y-45715000D01*
X117852000Y-45873750D01*
X117598000Y-45873750D01*
X117439250Y-45715000D01*
X116950000Y-45711928D01*
X116825518Y-45724188D01*
X116705820Y-45760498D01*
X116595506Y-45819463D01*
X116498815Y-45898815D01*
X116419463Y-45995506D01*
X116360498Y-46105820D01*
X116324188Y-46225518D01*
X116311928Y-46350000D01*
X111188072Y-46350000D01*
X111175812Y-46225518D01*
X111139502Y-46105820D01*
X111080537Y-45995506D01*
X111001185Y-45898815D01*
X110904494Y-45819463D01*
X110794180Y-45760498D01*
X110674482Y-45724188D01*
X110550000Y-45711928D01*
X110060750Y-45715000D01*
X109902000Y-45873750D01*
X109648000Y-45873750D01*
X109489250Y-45715000D01*
X109000000Y-45711928D01*
X108875518Y-45724188D01*
X108755820Y-45760498D01*
X108645506Y-45819463D01*
X108548815Y-45898815D01*
X108469463Y-45995506D01*
X108410498Y-46105820D01*
X108374188Y-46225518D01*
X108361928Y-46350000D01*
X98474801Y-46350000D01*
X101564802Y-43260000D01*
X108372762Y-43260000D01*
X108374188Y-43274482D01*
X108410498Y-43394180D01*
X108469463Y-43504494D01*
X108548815Y-43601185D01*
X108645506Y-43680537D01*
X108755820Y-43739502D01*
X108875518Y-43775812D01*
X109000000Y-43788072D01*
X110550000Y-43788072D01*
X110674482Y-43775812D01*
X110794180Y-43739502D01*
X110904494Y-43680537D01*
X111001185Y-43601185D01*
X111080537Y-43504494D01*
X111139502Y-43394180D01*
X111175812Y-43274482D01*
X111177238Y-43260000D01*
X116322762Y-43260000D01*
X116324188Y-43274482D01*
X116360498Y-43394180D01*
X116419463Y-43504494D01*
X116498815Y-43601185D01*
X116595506Y-43680537D01*
X116705820Y-43739502D01*
X116825518Y-43775812D01*
X116950000Y-43788072D01*
X118500000Y-43788072D01*
X118624482Y-43775812D01*
X118744180Y-43739502D01*
X118854494Y-43680537D01*
X118951185Y-43601185D01*
X119030537Y-43504494D01*
X119089502Y-43394180D01*
X119125812Y-43274482D01*
X119138072Y-43150000D01*
X119138072Y-41850000D01*
X119125812Y-41725518D01*
X119089502Y-41605820D01*
X119030537Y-41495506D01*
X118951185Y-41398815D01*
X118854494Y-41319463D01*
X118744180Y-41260498D01*
X118624482Y-41224188D01*
X118500000Y-41211928D01*
X116950000Y-41211928D01*
X116825518Y-41224188D01*
X116705820Y-41260498D01*
X116595506Y-41319463D01*
X116498815Y-41398815D01*
X116419463Y-41495506D01*
X116360498Y-41605820D01*
X116324188Y-41725518D01*
X116322762Y-41740000D01*
X111177238Y-41740000D01*
X111175812Y-41725518D01*
X111139502Y-41605820D01*
X111080537Y-41495506D01*
X111001185Y-41398815D01*
X110904494Y-41319463D01*
X110794180Y-41260498D01*
X110674482Y-41224188D01*
X110550000Y-41211928D01*
X109000000Y-41211928D01*
X108875518Y-41224188D01*
X108755820Y-41260498D01*
X108645506Y-41319463D01*
X108548815Y-41398815D01*
X108469463Y-41495506D01*
X108410498Y-41605820D01*
X108374188Y-41725518D01*
X108372762Y-41740000D01*
X101287325Y-41740000D01*
X101250000Y-41736324D01*
X101212675Y-41740000D01*
X101212667Y-41740000D01*
X101101014Y-41750997D01*
X100957753Y-41794454D01*
X100825724Y-41865026D01*
X100709999Y-41959999D01*
X100686201Y-41988997D01*
X93435199Y-49240000D01*
X87637322Y-49240000D01*
X87599999Y-49236324D01*
X87562676Y-49240000D01*
X87562667Y-49240000D01*
X87451014Y-49250997D01*
X87307753Y-49294454D01*
X87175723Y-49365026D01*
X87097076Y-49429571D01*
X87059999Y-49459999D01*
X87036201Y-49488997D01*
X86013271Y-50511928D01*
X84750000Y-50511928D01*
X84625518Y-50524188D01*
X84505820Y-50560498D01*
X84395506Y-50619463D01*
X84298815Y-50698815D01*
X84219463Y-50795506D01*
X84160498Y-50905820D01*
X84124188Y-51025518D01*
X84111928Y-51150000D01*
X70750524Y-51150000D01*
X70755808Y-51135413D01*
X69800000Y-50179605D01*
X68844192Y-51135413D01*
X63822496Y-51135413D01*
X63825812Y-51124482D01*
X63838072Y-51000000D01*
X63838072Y-50062595D01*
X68158282Y-50062595D01*
X68202039Y-50381675D01*
X68307205Y-50686088D01*
X68400186Y-50860044D01*
X68664587Y-50955808D01*
X69620395Y-50000000D01*
X69979605Y-50000000D01*
X70935413Y-50955808D01*
X71199814Y-50860044D01*
X71340704Y-50570429D01*
X71422384Y-50258892D01*
X71441718Y-49937405D01*
X71397961Y-49618325D01*
X71292795Y-49313912D01*
X71199814Y-49139956D01*
X70935413Y-49044192D01*
X69979605Y-50000000D01*
X69620395Y-50000000D01*
X68664587Y-49044192D01*
X68400186Y-49139956D01*
X68259296Y-49429571D01*
X68177616Y-49741108D01*
X68158282Y-50062595D01*
X63838072Y-50062595D01*
X63838072Y-49000000D01*
X63825812Y-48875518D01*
X63822497Y-48864587D01*
X68844192Y-48864587D01*
X69800000Y-49820395D01*
X70755808Y-48864587D01*
X70660044Y-48600186D01*
X70370429Y-48459296D01*
X70058892Y-48377616D01*
X69737405Y-48358282D01*
X69418325Y-48402039D01*
X69113912Y-48507205D01*
X68939956Y-48600186D01*
X68844192Y-48864587D01*
X63822497Y-48864587D01*
X63789502Y-48755820D01*
X63730537Y-48645506D01*
X63651185Y-48548815D01*
X63554494Y-48469463D01*
X63444180Y-48410498D01*
X63324482Y-48374188D01*
X63200000Y-48361928D01*
X61200000Y-48361928D01*
X61075518Y-48374188D01*
X60955820Y-48410498D01*
X60845506Y-48469463D01*
X60748815Y-48548815D01*
X60669463Y-48645506D01*
X60610498Y-48755820D01*
X60574188Y-48875518D01*
X60561928Y-49000000D01*
X15995261Y-49000000D01*
X15811493Y-48816232D01*
X15682438Y-48730000D01*
X15811493Y-48643768D01*
X16023768Y-48431493D01*
X16190551Y-48181885D01*
X16305434Y-47904534D01*
X16310069Y-47881231D01*
X31743374Y-47881231D01*
X31825727Y-48134289D01*
X32096418Y-48264086D01*
X32387230Y-48338580D01*
X32686988Y-48354908D01*
X32984171Y-48312443D01*
X33267359Y-48212816D01*
X33414273Y-48134289D01*
X33496626Y-47881231D01*
X32620000Y-47004605D01*
X31743374Y-47881231D01*
X16310069Y-47881231D01*
X16364000Y-47610101D01*
X16364000Y-47309899D01*
X16305434Y-47015466D01*
X16254288Y-46891988D01*
X31090092Y-46891988D01*
X31132557Y-47189171D01*
X31232184Y-47472359D01*
X31310711Y-47619273D01*
X31563769Y-47701626D01*
X32440395Y-46825000D01*
X32799605Y-46825000D01*
X33676231Y-47701626D01*
X33929289Y-47619273D01*
X34059086Y-47348582D01*
X34133580Y-47057770D01*
X34149908Y-46758012D01*
X34138032Y-46674899D01*
X36176000Y-46674899D01*
X36176000Y-46975101D01*
X36234566Y-47269534D01*
X36349449Y-47546885D01*
X36516232Y-47796493D01*
X36728507Y-48008768D01*
X36978115Y-48175551D01*
X37255466Y-48290434D01*
X37549899Y-48349000D01*
X37850101Y-48349000D01*
X38144534Y-48290434D01*
X38421885Y-48175551D01*
X38671493Y-48008768D01*
X38883768Y-47796493D01*
X39050551Y-47546885D01*
X39165434Y-47269534D01*
X39224000Y-46975101D01*
X39224000Y-46674899D01*
X39165434Y-46380466D01*
X39050551Y-46103115D01*
X38883768Y-45853507D01*
X38671493Y-45641232D01*
X38421885Y-45474449D01*
X38144534Y-45359566D01*
X37850101Y-45301000D01*
X37549899Y-45301000D01*
X37255466Y-45359566D01*
X36978115Y-45474449D01*
X36728507Y-45641232D01*
X36516232Y-45853507D01*
X36349449Y-46103115D01*
X36234566Y-46380466D01*
X36176000Y-46674899D01*
X34138032Y-46674899D01*
X34107443Y-46460829D01*
X34007816Y-46177641D01*
X33929289Y-46030727D01*
X33676231Y-45948374D01*
X32799605Y-46825000D01*
X32440395Y-46825000D01*
X31563769Y-45948374D01*
X31310711Y-46030727D01*
X31180914Y-46301418D01*
X31106420Y-46592230D01*
X31090092Y-46891988D01*
X16254288Y-46891988D01*
X16190551Y-46738115D01*
X16023768Y-46488507D01*
X15811493Y-46276232D01*
X15561885Y-46109449D01*
X15284534Y-45994566D01*
X14990101Y-45936000D01*
X14689899Y-45936000D01*
X14395466Y-45994566D01*
X14118115Y-46109449D01*
X13868507Y-46276232D01*
X13656232Y-46488507D01*
X13489449Y-46738115D01*
X13374566Y-47015466D01*
X13316000Y-47309899D01*
X8660000Y-47309899D01*
X8660000Y-45768769D01*
X31743374Y-45768769D01*
X32620000Y-46645395D01*
X33496626Y-45768769D01*
X33414273Y-45515711D01*
X33143582Y-45385914D01*
X32852770Y-45311420D01*
X32553012Y-45295092D01*
X32255829Y-45337557D01*
X31972641Y-45437184D01*
X31825727Y-45515711D01*
X31743374Y-45768769D01*
X8660000Y-45768769D01*
X8660000Y-42204882D01*
X16554500Y-42204882D01*
X16554500Y-42555118D01*
X16622828Y-42898623D01*
X16756857Y-43222199D01*
X16951437Y-43513409D01*
X17199091Y-43761063D01*
X17490301Y-43955643D01*
X17813877Y-44089672D01*
X18157382Y-44158000D01*
X18507618Y-44158000D01*
X18851123Y-44089672D01*
X19174699Y-43955643D01*
X19465909Y-43761063D01*
X19713563Y-43513409D01*
X19908143Y-43222199D01*
X20042172Y-42898623D01*
X20110500Y-42555118D01*
X20110500Y-42204882D01*
X29889500Y-42204882D01*
X29889500Y-42555118D01*
X29957828Y-42898623D01*
X30091857Y-43222199D01*
X30286437Y-43513409D01*
X30534091Y-43761063D01*
X30825301Y-43955643D01*
X31148877Y-44089672D01*
X31492382Y-44158000D01*
X31842618Y-44158000D01*
X32186123Y-44089672D01*
X32509699Y-43955643D01*
X32800909Y-43761063D01*
X33048563Y-43513409D01*
X33243143Y-43222199D01*
X33377172Y-42898623D01*
X33445500Y-42555118D01*
X33445500Y-42204882D01*
X33377172Y-41861377D01*
X33243143Y-41537801D01*
X33048563Y-41246591D01*
X32800909Y-40998937D01*
X32509699Y-40804357D01*
X32186123Y-40670328D01*
X31842618Y-40602000D01*
X31492382Y-40602000D01*
X31148877Y-40670328D01*
X30825301Y-40804357D01*
X30534091Y-40998937D01*
X30286437Y-41246591D01*
X30091857Y-41537801D01*
X29957828Y-41861377D01*
X29889500Y-42204882D01*
X20110500Y-42204882D01*
X20042172Y-41861377D01*
X19908143Y-41537801D01*
X19713563Y-41246591D01*
X19465909Y-40998937D01*
X19312199Y-40896231D01*
X21583374Y-40896231D01*
X21665727Y-41149289D01*
X21936418Y-41279086D01*
X22227230Y-41353580D01*
X22526988Y-41369908D01*
X22824171Y-41327443D01*
X23107359Y-41227816D01*
X23254273Y-41149289D01*
X23336626Y-40896231D01*
X22460000Y-40019605D01*
X21583374Y-40896231D01*
X19312199Y-40896231D01*
X19174699Y-40804357D01*
X18851123Y-40670328D01*
X18507618Y-40602000D01*
X18157382Y-40602000D01*
X17813877Y-40670328D01*
X17490301Y-40804357D01*
X17199091Y-40998937D01*
X16951437Y-41246591D01*
X16756857Y-41537801D01*
X16622828Y-41861377D01*
X16554500Y-42204882D01*
X8660000Y-42204882D01*
X8660000Y-39906988D01*
X20930092Y-39906988D01*
X20972557Y-40204171D01*
X21072184Y-40487359D01*
X21150711Y-40634273D01*
X21403769Y-40716626D01*
X22280395Y-39840000D01*
X22639605Y-39840000D01*
X23516231Y-40716626D01*
X23710583Y-40653378D01*
X23816232Y-40811493D01*
X24028507Y-41023768D01*
X24278115Y-41190551D01*
X24555466Y-41305434D01*
X24849899Y-41364000D01*
X25150101Y-41364000D01*
X25444534Y-41305434D01*
X25721885Y-41190551D01*
X25971493Y-41023768D01*
X26183768Y-40811493D01*
X26270000Y-40682438D01*
X26356232Y-40811493D01*
X26568507Y-41023768D01*
X26818115Y-41190551D01*
X27095466Y-41305434D01*
X27389899Y-41364000D01*
X27690101Y-41364000D01*
X27984534Y-41305434D01*
X28261885Y-41190551D01*
X28511493Y-41023768D01*
X28723768Y-40811493D01*
X28890551Y-40561885D01*
X29005434Y-40284534D01*
X29064000Y-39990101D01*
X29064000Y-39689899D01*
X29005434Y-39395466D01*
X28890551Y-39118115D01*
X28723768Y-38868507D01*
X28511493Y-38656232D01*
X28261885Y-38489449D01*
X27984534Y-38374566D01*
X27690101Y-38316000D01*
X27389899Y-38316000D01*
X27095466Y-38374566D01*
X26818115Y-38489449D01*
X26568507Y-38656232D01*
X26356232Y-38868507D01*
X26270000Y-38997562D01*
X26183768Y-38868507D01*
X25971493Y-38656232D01*
X25721885Y-38489449D01*
X25444534Y-38374566D01*
X25150101Y-38316000D01*
X24849899Y-38316000D01*
X24555466Y-38374566D01*
X24278115Y-38489449D01*
X24028507Y-38656232D01*
X23816232Y-38868507D01*
X23710583Y-39026622D01*
X23516231Y-38963374D01*
X22639605Y-39840000D01*
X22280395Y-39840000D01*
X21403769Y-38963374D01*
X21150711Y-39045727D01*
X21020914Y-39316418D01*
X20946420Y-39607230D01*
X20930092Y-39906988D01*
X8660000Y-39906988D01*
X8660000Y-38783769D01*
X21583374Y-38783769D01*
X22460000Y-39660395D01*
X23336626Y-38783769D01*
X23254273Y-38530711D01*
X22983582Y-38400914D01*
X22692770Y-38326420D01*
X22393012Y-38310092D01*
X22095829Y-38352557D01*
X21812641Y-38452184D01*
X21665727Y-38530711D01*
X21583374Y-38783769D01*
X8660000Y-38783769D01*
X8660000Y-36336087D01*
X9598434Y-35653589D01*
X60170000Y-35653589D01*
X60170000Y-35926411D01*
X60223225Y-36193989D01*
X60327629Y-36446043D01*
X60479201Y-36672886D01*
X60672114Y-36865799D01*
X60898957Y-37017371D01*
X61151011Y-37121775D01*
X61418589Y-37175000D01*
X61691411Y-37175000D01*
X61958989Y-37121775D01*
X62211043Y-37017371D01*
X62437886Y-36865799D01*
X62630799Y-36672886D01*
X62782371Y-36446043D01*
X62825000Y-36343127D01*
X62867629Y-36446043D01*
X63019201Y-36672886D01*
X63212114Y-36865799D01*
X63438957Y-37017371D01*
X63691011Y-37121775D01*
X63958589Y-37175000D01*
X64231411Y-37175000D01*
X64498989Y-37121775D01*
X64751043Y-37017371D01*
X64977886Y-36865799D01*
X65170799Y-36672886D01*
X65322371Y-36446043D01*
X65365000Y-36343127D01*
X65407629Y-36446043D01*
X65559201Y-36672886D01*
X65752114Y-36865799D01*
X65978957Y-37017371D01*
X66231011Y-37121775D01*
X66498589Y-37175000D01*
X66771411Y-37175000D01*
X67038989Y-37121775D01*
X67291043Y-37017371D01*
X67517886Y-36865799D01*
X67636692Y-36746993D01*
X68397612Y-36746993D01*
X68463137Y-36985860D01*
X68710116Y-37101760D01*
X68974960Y-37167250D01*
X69247492Y-37179812D01*
X69517238Y-37138965D01*
X69773832Y-37046277D01*
X69886863Y-36985860D01*
X69952388Y-36746993D01*
X69175000Y-35969605D01*
X68397612Y-36746993D01*
X67636692Y-36746993D01*
X67710799Y-36672886D01*
X67862371Y-36446043D01*
X67903511Y-36346721D01*
X67918723Y-36388832D01*
X67979140Y-36501863D01*
X68218007Y-36567388D01*
X68995395Y-35790000D01*
X69354605Y-35790000D01*
X70131993Y-36567388D01*
X70370860Y-36501863D01*
X70486760Y-36254884D01*
X70552250Y-35990040D01*
X70564812Y-35717508D01*
X70523965Y-35447762D01*
X70431277Y-35191168D01*
X70370860Y-35078137D01*
X70131993Y-35012612D01*
X69354605Y-35790000D01*
X68995395Y-35790000D01*
X68218007Y-35012612D01*
X67979140Y-35078137D01*
X67904836Y-35236477D01*
X67862371Y-35133957D01*
X67710799Y-34907114D01*
X67517886Y-34714201D01*
X67291043Y-34562629D01*
X67038989Y-34458225D01*
X66771411Y-34405000D01*
X66498589Y-34405000D01*
X66231011Y-34458225D01*
X65978957Y-34562629D01*
X65752114Y-34714201D01*
X65559201Y-34907114D01*
X65407629Y-35133957D01*
X65365000Y-35236873D01*
X65322371Y-35133957D01*
X65170799Y-34907114D01*
X64977886Y-34714201D01*
X64751043Y-34562629D01*
X64498989Y-34458225D01*
X64231411Y-34405000D01*
X63958589Y-34405000D01*
X63691011Y-34458225D01*
X63438957Y-34562629D01*
X63212114Y-34714201D01*
X63019201Y-34907114D01*
X62867629Y-35133957D01*
X62825000Y-35236873D01*
X62782371Y-35133957D01*
X62630799Y-34907114D01*
X62437886Y-34714201D01*
X62211043Y-34562629D01*
X61958989Y-34458225D01*
X61691411Y-34405000D01*
X61418589Y-34405000D01*
X61151011Y-34458225D01*
X60898957Y-34562629D01*
X60672114Y-34714201D01*
X60479201Y-34907114D01*
X60327629Y-35133957D01*
X60223225Y-35386011D01*
X60170000Y-35653589D01*
X9598434Y-35653589D01*
X13090934Y-33113589D01*
X61440000Y-33113589D01*
X61440000Y-33386411D01*
X61493225Y-33653989D01*
X61597629Y-33906043D01*
X61749201Y-34132886D01*
X61942114Y-34325799D01*
X62168957Y-34477371D01*
X62421011Y-34581775D01*
X62688589Y-34635000D01*
X62961411Y-34635000D01*
X63228989Y-34581775D01*
X63481043Y-34477371D01*
X63707886Y-34325799D01*
X63900799Y-34132886D01*
X64052371Y-33906043D01*
X64095000Y-33803127D01*
X64137629Y-33906043D01*
X64289201Y-34132886D01*
X64482114Y-34325799D01*
X64708957Y-34477371D01*
X64961011Y-34581775D01*
X65228589Y-34635000D01*
X65501411Y-34635000D01*
X65768989Y-34581775D01*
X66021043Y-34477371D01*
X66247886Y-34325799D01*
X66440799Y-34132886D01*
X66592371Y-33906043D01*
X66635000Y-33803127D01*
X66677629Y-33906043D01*
X66829201Y-34132886D01*
X67022114Y-34325799D01*
X67248957Y-34477371D01*
X67501011Y-34581775D01*
X67768589Y-34635000D01*
X68041411Y-34635000D01*
X68308989Y-34581775D01*
X68561043Y-34477371D01*
X68787886Y-34325799D01*
X68980799Y-34132886D01*
X69058555Y-34016517D01*
X69069188Y-34124482D01*
X69105498Y-34244180D01*
X69164463Y-34354494D01*
X69205873Y-34404952D01*
X69102508Y-34400188D01*
X68832762Y-34441035D01*
X68576168Y-34533723D01*
X68463137Y-34594140D01*
X68397612Y-34833007D01*
X69175000Y-35610395D01*
X69952388Y-34833007D01*
X69898545Y-34636725D01*
X70159250Y-34635000D01*
X70318000Y-34476250D01*
X70318000Y-33377000D01*
X70572000Y-33377000D01*
X70572000Y-34476250D01*
X70730750Y-34635000D01*
X71195000Y-34638072D01*
X71319482Y-34625812D01*
X71439180Y-34589502D01*
X71549494Y-34530537D01*
X71646185Y-34451185D01*
X71725537Y-34354494D01*
X71784502Y-34244180D01*
X71820812Y-34124482D01*
X71833072Y-34000000D01*
X71830000Y-33535750D01*
X71671250Y-33377000D01*
X70572000Y-33377000D01*
X70318000Y-33377000D01*
X70298000Y-33377000D01*
X70298000Y-33123000D01*
X70318000Y-33123000D01*
X70318000Y-32023750D01*
X70572000Y-32023750D01*
X70572000Y-33123000D01*
X71671250Y-33123000D01*
X71830000Y-32964250D01*
X71833072Y-32500000D01*
X71820812Y-32375518D01*
X71784502Y-32255820D01*
X71725537Y-32145506D01*
X71646185Y-32048815D01*
X71549494Y-31969463D01*
X71439180Y-31910498D01*
X71319482Y-31874188D01*
X71195000Y-31861928D01*
X70730750Y-31865000D01*
X70572000Y-32023750D01*
X70318000Y-32023750D01*
X70159250Y-31865000D01*
X69695000Y-31861928D01*
X69570518Y-31874188D01*
X69450820Y-31910498D01*
X69340506Y-31969463D01*
X69243815Y-32048815D01*
X69164463Y-32145506D01*
X69105498Y-32255820D01*
X69069188Y-32375518D01*
X69058555Y-32483483D01*
X68980799Y-32367114D01*
X68787886Y-32174201D01*
X68561043Y-32022629D01*
X68308989Y-31918225D01*
X68041411Y-31865000D01*
X67768589Y-31865000D01*
X67501011Y-31918225D01*
X67248957Y-32022629D01*
X67022114Y-32174201D01*
X66829201Y-32367114D01*
X66677629Y-32593957D01*
X66635000Y-32696873D01*
X66592371Y-32593957D01*
X66440799Y-32367114D01*
X66247886Y-32174201D01*
X66021043Y-32022629D01*
X65768989Y-31918225D01*
X65501411Y-31865000D01*
X65228589Y-31865000D01*
X64961011Y-31918225D01*
X64708957Y-32022629D01*
X64482114Y-32174201D01*
X64289201Y-32367114D01*
X64137629Y-32593957D01*
X64095000Y-32696873D01*
X64052371Y-32593957D01*
X63900799Y-32367114D01*
X63707886Y-32174201D01*
X63481043Y-32022629D01*
X63228989Y-31918225D01*
X62961411Y-31865000D01*
X62688589Y-31865000D01*
X62421011Y-31918225D01*
X62168957Y-32022629D01*
X61942114Y-32174201D01*
X61749201Y-32367114D01*
X61597629Y-32593957D01*
X61493225Y-32846011D01*
X61440000Y-33113589D01*
X13090934Y-33113589D01*
X19965727Y-28113740D01*
X47775000Y-28113740D01*
X47775000Y-28406260D01*
X47832068Y-28693158D01*
X47944010Y-28963411D01*
X48106525Y-29206632D01*
X48313368Y-29413475D01*
X48487760Y-29530000D01*
X48313368Y-29646525D01*
X48106525Y-29853368D01*
X47944010Y-30096589D01*
X47832068Y-30366842D01*
X47775000Y-30653740D01*
X47775000Y-30946260D01*
X47832068Y-31233158D01*
X47944010Y-31503411D01*
X48106525Y-31746632D01*
X48313368Y-31953475D01*
X48556589Y-32115990D01*
X48826842Y-32227932D01*
X49113740Y-32285000D01*
X49406260Y-32285000D01*
X49693158Y-32227932D01*
X49963411Y-32115990D01*
X50206632Y-31953475D01*
X50393715Y-31766392D01*
X50461595Y-31893386D01*
X50572038Y-32027962D01*
X50706614Y-32138405D01*
X50860150Y-32220472D01*
X51026746Y-32271008D01*
X51200000Y-32288072D01*
X52400000Y-32288072D01*
X52573254Y-32271008D01*
X52739850Y-32220472D01*
X52893386Y-32138405D01*
X53027962Y-32027962D01*
X53138405Y-31893386D01*
X53220472Y-31739850D01*
X53271008Y-31573254D01*
X53288072Y-31400000D01*
X53288072Y-30200000D01*
X53271008Y-30026746D01*
X53220472Y-29860150D01*
X53138405Y-29706614D01*
X53027962Y-29572038D01*
X52893386Y-29461595D01*
X52766392Y-29393715D01*
X52953475Y-29206632D01*
X53115990Y-28963411D01*
X53227932Y-28693158D01*
X53285000Y-28406260D01*
X53285000Y-28113740D01*
X53227932Y-27826842D01*
X53115990Y-27556589D01*
X52953475Y-27313368D01*
X52746632Y-27106525D01*
X52572240Y-26990000D01*
X52746632Y-26873475D01*
X52940235Y-26679872D01*
X58050000Y-26679872D01*
X58050000Y-27120128D01*
X58135890Y-27551925D01*
X58304369Y-27958669D01*
X58548962Y-28324729D01*
X58860271Y-28636038D01*
X59226331Y-28880631D01*
X59633075Y-29049110D01*
X60064872Y-29135000D01*
X60505128Y-29135000D01*
X60936925Y-29049110D01*
X61343669Y-28880631D01*
X61709729Y-28636038D01*
X62021038Y-28324729D01*
X62265631Y-27958669D01*
X62434110Y-27551925D01*
X62520000Y-27120128D01*
X62520000Y-26679872D01*
X69480000Y-26679872D01*
X69480000Y-27120128D01*
X69565890Y-27551925D01*
X69734369Y-27958669D01*
X69978962Y-28324729D01*
X70290271Y-28636038D01*
X70656331Y-28880631D01*
X71063075Y-29049110D01*
X71494872Y-29135000D01*
X71935128Y-29135000D01*
X72366925Y-29049110D01*
X72773669Y-28880631D01*
X73139729Y-28636038D01*
X73451038Y-28324729D01*
X73695631Y-27958669D01*
X73864110Y-27551925D01*
X73950000Y-27120128D01*
X73950000Y-26679872D01*
X73864110Y-26248075D01*
X73695631Y-25841331D01*
X73451038Y-25475271D01*
X73139729Y-25163962D01*
X72773669Y-24919369D01*
X72366925Y-24750890D01*
X71935128Y-24665000D01*
X71494872Y-24665000D01*
X71063075Y-24750890D01*
X70656331Y-24919369D01*
X70290271Y-25163962D01*
X69978962Y-25475271D01*
X69734369Y-25841331D01*
X69565890Y-26248075D01*
X69480000Y-26679872D01*
X62520000Y-26679872D01*
X62434110Y-26248075D01*
X62265631Y-25841331D01*
X62021038Y-25475271D01*
X61709729Y-25163962D01*
X61343669Y-24919369D01*
X60936925Y-24750890D01*
X60505128Y-24665000D01*
X60064872Y-24665000D01*
X59633075Y-24750890D01*
X59226331Y-24919369D01*
X58860271Y-25163962D01*
X58548962Y-25475271D01*
X58304369Y-25841331D01*
X58135890Y-26248075D01*
X58050000Y-26679872D01*
X52940235Y-26679872D01*
X52953475Y-26666632D01*
X53115990Y-26423411D01*
X53227932Y-26153158D01*
X53285000Y-25866260D01*
X53285000Y-25573740D01*
X53227932Y-25286842D01*
X53115990Y-25016589D01*
X52953475Y-24773368D01*
X52746632Y-24566525D01*
X52503411Y-24404010D01*
X52233158Y-24292068D01*
X51946260Y-24235000D01*
X51653740Y-24235000D01*
X51366842Y-24292068D01*
X51096589Y-24404010D01*
X50853368Y-24566525D01*
X50646525Y-24773368D01*
X50530689Y-24946729D01*
X50288397Y-24871208D01*
X49439605Y-25720000D01*
X50288397Y-26568792D01*
X50530689Y-26493271D01*
X50646525Y-26666632D01*
X50853368Y-26873475D01*
X51027760Y-26990000D01*
X50853368Y-27106525D01*
X50646525Y-27313368D01*
X50530000Y-27487760D01*
X50413475Y-27313368D01*
X50206632Y-27106525D01*
X50033271Y-26990689D01*
X50108792Y-26748397D01*
X49260000Y-25899605D01*
X48411208Y-26748397D01*
X48486729Y-26990689D01*
X48313368Y-27106525D01*
X48106525Y-27313368D01*
X47944010Y-27556589D01*
X47832068Y-27826842D01*
X47775000Y-28113740D01*
X19965727Y-28113740D01*
X23162890Y-25788531D01*
X47769389Y-25788531D01*
X47811401Y-26078019D01*
X47909081Y-26353747D01*
X47982528Y-26491157D01*
X48231603Y-26568792D01*
X49080395Y-25720000D01*
X48231603Y-24871208D01*
X47982528Y-24948843D01*
X47856629Y-25212883D01*
X47784661Y-25496411D01*
X47769389Y-25788531D01*
X23162890Y-25788531D01*
X24671166Y-24691603D01*
X48411208Y-24691603D01*
X49260000Y-25540395D01*
X50108792Y-24691603D01*
X50031157Y-24442528D01*
X49767117Y-24316629D01*
X49483589Y-24244661D01*
X49191469Y-24229389D01*
X48901981Y-24271401D01*
X48626253Y-24369081D01*
X48488843Y-24442528D01*
X48411208Y-24691603D01*
X24671166Y-24691603D01*
X30214621Y-20660000D01*
X101785381Y-20660000D01*
X123340001Y-36336088D01*
%TD*%
M02*
